<svg width="512" height="512" viewBox="0 0 512 512" fill="none" xmlns="http://www.w3.org/2000/svg">
<g clip-path="url(#clip0_189_195)">
<rect width="512" height="512" fill="white"/>
<path d="M386.5 284C375.274 288.912 372.815 288.46 360.759 290.684L158.5 288.03C156.913 287.237 116.723 282.061 115 282.061C112.308 282.061 109.86 277.974 107.372 277.086C100.53 274.642 94.9871 269.198 91.9679 262.824C90.6548 260.052 88.1928 256.384 87.4721 253.501C86.2601 248.653 82.1795 244.768 81.5391 239.645C81.093 236.077 81.3639 232.075 81.5022 228.479C81.5271 227.833 84.4963 221.426 82.6814 222.878C80.0272 225.001 76.8554 226.659 75.4955 230.285C73.4465 235.749 71.6422 241.295 69.8573 246.905C67.8353 253.26 66.2459 258.763 66.2459 265.478C66.2459 269.866 65.1785 275.966 66.3933 280.218C67.574 284.351 67.9481 288.855 69.8573 292.674C71.1084 295.176 73.0049 299.575 73.5055 302.329C74.5663 308.163 74.5233 312.826 74.2057 318.543C73.9493 323.159 68.7124 331.701 63.261 327.461C58.279 323.586 50.3263 322.029 50.3263 314.563C50.3263 312.643 54.2335 299.428 53.9377 299.344C47.7594 297.579 38.9974 300.858 35.07 305.277C29.2819 311.788 25.1202 320.263 25.1202 329.156C25.1202 340.415 28.4368 351.155 28.4368 362.47C28.4368 367.186 28.3825 371.565 26.4468 375.92C25.2316 378.655 22.9112 380.34 21.1403 382.553C19.8259 384.196 15.738 377.755 15.3179 376.915C14.8643 376.008 14.0043 374.791 13.3279 374.114C12.3078 373.094 11.2831 372.067 10.4535 370.872C3.17592 360.383 -2.46637 348.192 -8.70898 337.116L-23.5 547.5L541.5 562.5L530.569 392.835C520.881 391.305 511.395 390.15 502.046 387.676C496.89 386.311 490.591 387.007 485.795 384.875C482.727 383.511 480.659 383.389 478.461 380.563C477.345 379.128 476.259 377.599 475.513 375.92C474.841 374.408 473.511 372.917 473.007 371.461C470.786 365.044 472.197 359.106 472.197 352.372C472.197 344.254 469.74 337.037 465.711 330.188C463.408 326.273 459.544 323.483 456.94 319.722C454.755 316.565 452.621 312.307 449.939 309.625C445.684 305.37 442.764 299.925 439.841 294.664C438.5 292.249 437.021 288.975 433.872 291.494C431.794 293.156 432.398 296.531 432.398 298.975V299.099C432.398 305.706 432.398 312.444 429.081 318.248C426.224 323.247 420.07 326.168 414.488 325.84C407.718 325.441 414.417 310.76 415.151 308.556C416.341 304.988 417.842 301.923 418.505 298.275C419.125 294.861 419.569 291.191 420.974 288.03C421.767 286.245 420.542 283.878 421.269 282.061C422.036 280.143 421.979 277.945 422.595 275.943C424.039 271.253 423.774 266.769 423.774 261.829V250.516C423.774 244.748 420.89 238.958 420.458 233.123C420.368 231.906 419.34 229.204 418.468 228.332C417.789 227.653 414.657 226.981 414.488 228.332C414.157 230.978 411.03 233.994 410.545 236.66C409.807 240.72 407.007 244.141 406.491 248.268C406.139 251.091 404.943 253.944 404.575 256.891C404.201 259.883 402.5 262.485 402.5 265.5C402.5 270.412 398.826 272.888 396.542 277C395.573 278.743 388.37 283.182 386.5 284Z" fill="#FF2323"/>
<path d="M32.7488 407.427C14.9132 407.427 -1.10029 398.007 -11.3618 382.885V543L522.5 537.5L518.629 406.764C511.316 399.451 505.9 398.804 496.076 398.804C491.654 398.804 484.41 399.457 481.483 403.116C479.05 406.157 466.905 403.96 463.574 403.484C458.254 402.724 448.317 398.988 448.317 392.171V383.216C448.317 381.422 447.369 375.778 448.465 374.409C449.559 373.041 450.878 368.631 447.986 370.945C446.313 372.283 441.349 372.026 440.357 373.266C439.982 373.735 437.442 374.099 436.746 374.298C435.816 374.564 434.947 375.397 434.24 376.104C432.584 377.76 430.648 380.039 428.749 381.558C426.59 383.285 424.814 385.686 423.627 388.191C422.931 389.661 422.25 391.067 421.453 392.502C418.869 397.154 423.336 406.363 424.438 410.081C416.784 403.891 409.065 397.768 401.59 391.36C399.918 389.927 397.826 388.514 396.652 386.607C395.889 385.366 395.252 385.472 395.252 383.88C395.252 380.852 396.708 380.086 399.224 378.761L399.232 378.757C401.99 377.306 405.84 375.631 408.85 374.962C410.414 374.614 414.162 373.84 415.151 372.603C416.284 371.188 417.842 371.161 418.984 370.134L419.147 369.987C420.38 368.875 422.753 366.736 424.143 366.339C428.235 365.169 430.53 361.168 433.208 358.489C434.297 357.401 435.341 355.456 436.709 354.362C438.158 353.203 437.474 349.841 438.515 348.54C439.952 346.742 441.085 338.442 438.036 338.442C436.163 338.442 433.51 341.505 431.587 342.275C429.405 343.148 427.502 343.616 425.101 343.749C420.911 343.982 416.543 344.412 412.166 344.412C405.316 344.412 393.093 341.372 392.598 332.473C392.354 328.079 392.08 324.273 392.598 319.869C392.983 316.599 395.249 311.25 396.91 308.261C398.158 306.016 399.835 298.967 396.947 297.317C393.284 295.224 390.058 299.551 386.5 299.97C384.32 300.226 381.79 301.5 379.5 301.5C377.092 301.5 369.619 303.823 367.5 305C365.564 306.076 319.745 303.618 317.5 303.618C315.375 303.618 247.085 308.261 162 308.261C153.247 303.885 137.771 309.925 129 303.618C128.479 303.598 97.0816 287.227 99.5596 289.21C94 290.5 100.558 292.323 101.5 293.5C103.716 296.27 106.58 298.306 108 301.5C109.923 305.827 111.352 307.385 111.352 312.241C111.352 316.478 111.61 321.942 109.878 325.839C108.136 329.759 107.617 334.162 105.382 338.074C103.202 341.889 98.4658 341.858 95.4323 344.412C93.8946 345.707 91.3964 345.631 89.4625 345.739C87.6688 345.839 86.2536 347.066 84.4876 347.066H72.2162C69.1766 347.066 66.1144 347.174 63.0772 347.066C60.0455 346.957 59.6256 345.629 60.3133 348.724C60.9903 351.77 64.0503 353.735 65.4356 356.352C66.713 358.765 71.4456 361.304 73.8745 362.653C77.9636 364.925 81.9228 367.788 86.1459 370.134C90.496 372.551 94.0567 376.959 96.4273 381.226C98.4706 384.904 97.134 388.371 96.1325 391.876C94.8687 396.3 91.3248 410.081 85.8142 410.081C82.2145 410.081 75.6497 407.981 73.6902 404.774C71.5188 401.221 70.8896 398.819 70.8896 394.493C70.8896 387.584 65.5008 382.782 61.6031 377.91C59.4859 375.263 57.2418 372.848 54.8225 370.429C52.3399 367.946 50.6064 364.403 48.0051 362.322C46.7976 361.356 45.8965 359.845 44.0621 360.369C42.6129 360.783 44.3201 364.351 44.3569 364.975C44.513 367.63 47.6184 370.586 48.3736 373.23C49.8599 378.432 51.6359 389.815 48.6684 395.156C46.8558 398.419 46.512 401.587 43.8409 404.258C41.2489 406.85 36.4182 407.427 32.7488 407.427Z" fill="#FDEEB2"/>
<path d="M237.484 185.623C241.367 183.858 243.907 180.497 247.959 179.092C249.058 176.892 252.004 176.283 254.206 177.262C255.905 178.017 256.826 177.051 258.307 178.398C259.23 179.236 262.378 180.995 263.576 181.363C265.82 182.054 268.359 184.846 270.423 186.159C273.284 187.98 276.592 188.531 279.73 189.63C285.672 191.709 291.141 192.154 297.367 192.154C301.836 192.154 306.084 191.586 310.555 191.586C315.242 191.586 320.815 194.692 324.626 197.233C333.653 203.251 342.717 209.98 343.367 221.685C343.552 225.005 344.503 228.511 344.503 231.907C344.503 234.648 343.782 238.611 344.535 241.246C345.276 243.84 349.007 247.989 351.634 248.945C353.671 249.686 355.875 251.888 357.313 253.456C359.024 255.323 361.718 256.437 363.244 258.725C365.628 262.3 370.933 266.38 371.195 271.093C371.343 273.761 371.115 277.483 369.239 279.359C367.758 280.84 367.655 283.392 366.399 285.007C365.415 286.273 364.391 287.856 363.686 289.266C361.95 292.738 360.872 296.362 359.553 300.056C358.553 302.856 359.269 307.008 359.269 309.995C359.269 313.826 363.273 317.586 364.254 321.511C365.53 326.614 366.71 333.01 364.38 338.106C362.634 341.926 362.438 348.285 358.385 350.6C353.786 353.228 349.064 354.032 344.219 356.027C338.033 358.574 332.272 361.696 327.466 366.502C324.888 369.08 322.016 371.326 321.093 375.02C320.447 377.605 320.05 380.529 319.073 382.971C317.584 386.696 320.322 394.09 317.528 396.885C314.257 400.155 310.196 402.911 305.854 404.268C301.23 405.713 294.69 404.552 289.858 404.552C285.254 404.552 280.897 405.688 276.354 405.688C273.338 405.688 271.785 409.37 269.224 410.767C266.503 412.251 264.533 413.037 262.44 415.594C261.034 417.313 259.642 419.317 257.329 419.317C252.68 419.317 247.506 416.453 243.415 414.522C237.476 411.717 231.184 409.337 224.99 407.107C218.912 404.919 213.391 401.876 207.637 398.999C198.402 394.381 188.176 394 178.137 391.49C173.346 390.292 160.023 381.49 162.898 375.02C164.012 372.516 163.34 368.685 163.34 365.934C163.34 362.844 158.06 362.457 156.525 360.539C154.156 357.577 149.351 356.067 147.47 352.62C144.701 347.542 139.809 343.637 136.901 338.548C135.457 336.021 137.069 331.107 137.216 328.452C137.301 326.932 138.27 325.466 138.352 323.909C138.448 322.087 139.134 318.815 139.803 317.094C142.421 310.363 139.488 302.798 139.488 296.081C139.488 294.456 138.419 290.336 137.343 289.14C135.384 286.963 137.05 282.846 135.197 280.464C132.972 277.603 129.833 274.913 129.833 271.093C129.833 267.21 130.508 265.82 132.957 262.827C141.851 251.957 151.127 242.053 159.68 231.055C163.865 225.676 167.008 218.686 169.713 212.598C172.099 207.23 177.598 203.16 179.21 197.517C180.013 194.707 183.681 193.259 185.773 191.586C187.476 190.223 191.787 191.018 194.007 191.018H213.032C217.833 191.018 226.513 192.53 230.227 189.188C231.944 187.642 235.289 186.62 237.484 185.623Z" fill="black"/>
<path d="M214.224 220.792C225.48 218.097 236.263 213.769 247.173 209.943C248.494 210.604 251.459 209.14 252.999 209.14C254.434 209.14 256.705 209.849 258.022 210.434C260.785 211.662 263.415 213.13 266.282 214.162C272.921 216.553 279.751 218.748 286.149 221.775C294.793 225.863 303.035 230.043 310.258 236.463C316.386 241.91 320.674 248.053 324.322 255.349C326.683 260.07 326.281 265.321 327.715 270.238C328.519 272.994 328.702 275.875 329.546 278.654C330.343 281.28 330.619 284.375 331.064 287.092C331.506 289.796 331.153 292.817 331.153 295.553C331.153 298.578 331.555 301.525 331.555 304.549C331.555 312.784 331.667 320.432 329.233 328.39C327.675 333.485 326.421 338.524 324.523 343.548C322.898 347.85 320.896 352.606 318.496 356.518C315.556 361.309 311.255 366.635 305.928 368.885C301.688 370.675 297.401 373.602 292.779 374.287C287.141 375.122 281.582 375.492 275.881 375.492C271.473 375.492 267.525 377.004 263.246 377.479C259.36 377.911 255.458 376.841 251.593 376.698C248.939 376.6 246.128 375.803 243.534 375.269C240.93 374.733 238.291 374.373 235.721 373.707C230.179 372.27 224.518 371.279 218.956 369.867C207.296 366.906 193.695 365.902 183.686 358.527C180.416 356.118 177.066 353.102 175.024 349.575C174.099 347.976 173.056 346.693 172.212 344.954C171.476 343.439 171.145 341.835 170.426 340.311C169.623 338.611 169.277 336.661 168.595 334.909C168.045 333.494 167.132 331.942 166.809 330.489C165.986 326.783 163.399 323.637 162.3 320.041C160.918 315.519 158.773 312.096 158.773 307.183C158.773 302.037 159.389 297.58 160.782 292.629C161.713 289.318 162.356 285.928 163.416 282.65C164.375 279.686 166.087 276.986 167.01 274.011C168.731 268.466 170.473 263.006 172.747 257.67C175.104 252.142 177.459 246.696 181.252 241.955C184.351 238.081 187.713 234.847 191.231 231.329C195.074 227.486 199.305 223.446 204.826 222.377C207.938 221.775 211.135 221.532 214.224 220.792Z" fill="white" stroke="black" stroke-width="3" stroke-linecap="round"/>
<path d="M267.834 77.8939C265.746 76.2243 264.823 74.2673 262.276 73.13C260.703 73.13 257.249 72.5692 256.041 73.777C254.871 74.9477 254.285 78.0659 253.689 79.4819C252.739 81.738 251.345 84.6031 251.16 87.01C250.929 90.0113 249.043 92.8792 249.043 95.9202C249.043 99.2635 247.369 102.665 246.955 105.977C246.479 109.784 246.998 113.928 245.573 117.593C242.748 124.856 241.257 132.024 235.692 137.589C234.301 138.98 230.657 139.577 228.811 140.236C225.195 141.527 221.983 143.271 218.46 144.706C216.281 145.593 214.553 147.576 212.52 148.705C210.395 149.885 207.275 150.888 205.668 152.763C204.511 154.113 201.163 155.637 199.522 156.233C198.184 156.72 194.176 160.066 193.993 161.526C193.903 162.249 192.955 162.692 192.523 163.232C192.08 163.786 192.405 165.594 192.405 166.29V172.378C192.405 176.218 196.543 179.138 198.757 181.905C201.541 185.385 203.488 187.463 208.285 187.463C213.179 187.463 216.963 186.24 219.518 181.641C221.682 177.746 224.436 174.079 228.135 171.613C230.273 170.188 232.654 168.901 233.957 166.555C234.861 164.928 235.28 169.248 235.28 170.26C235.28 176.781 236.53 183.156 236.868 189.58C237.128 194.506 240.109 198.056 243.485 201.431C245.618 203.565 251.218 210.139 254.865 208.518C256.754 207.679 258.236 207.617 259.747 206.107C261.401 204.453 263.072 202.192 264.393 200.284C266.026 197.926 267.812 195.395 269.804 193.403C271.029 192.178 272.953 190.452 273.421 188.816C273.852 187.307 276.84 185.132 277.949 184.023C279.964 182.008 281.401 178.943 283.213 176.612C283.913 175.712 284.404 174.571 285.301 175.289C286.053 175.89 286.922 176.197 287.183 177.112C287.311 177.561 289.139 178.907 289.536 179.523C290.275 180.673 291.168 181.67 291.918 182.817C293.474 185.197 296.895 188.859 297.211 191.698C297.499 194.294 301.691 193.286 303.563 193.286C305.52 193.286 307.397 193.676 308.444 191.698C309.416 189.862 310.511 187.718 311.738 186.14C312.689 184.917 312.032 181.315 312.032 179.788C312.032 177.055 311.725 174.605 310.855 171.995C308.97 166.338 306.682 160.722 302.769 155.939C302.026 155.031 301.135 153.38 300.887 152.263C300.648 151.189 299.308 151.312 298.799 150.675C298.333 150.093 296.393 149.362 295.623 149.087C294.572 148.712 293.762 147.498 292.712 147.264C289.579 146.568 283.491 143.151 281.743 140.354C280.837 138.905 277.746 138.346 276.685 136.648C275.709 135.087 273.776 133.622 272.45 132.296C270.326 130.172 266.674 127.197 266.01 124.209C265.762 123.093 264.922 122.926 264.922 121.563V118.387C264.922 116.773 264.89 112.855 266.246 111.77C267.025 111.147 268.098 106.263 268.098 105.154V99.0667C268.098 93.9579 268.628 89.089 268.628 83.9517C268.628 82.3486 269.207 78.9927 267.834 77.8939Z" fill="#75FF53" stroke="#75FF53" stroke-width="3" stroke-linecap="round"/>
<path d="M208.55 200.167C214.171 197.669 218.574 193.728 223.106 189.581C223.106 191.698 222.048 197.52 222.048 199.638C222.048 201.495 223.255 202.822 223.665 204.666C224.134 206.774 226.473 208.88 227.459 210.753C228.638 212.995 230.999 215.792 232.928 217.37C236.078 219.947 241.835 222.398 245.632 222.398C247.567 222.398 257.388 223.613 258.571 222.134C259.469 221.011 261.791 220.246 263.07 219.222C264.416 218.146 265.657 217.068 266.922 215.929C267.933 215.019 269.547 213.746 270.216 212.577C271.411 210.485 274.603 209.614 275.921 207.577C276.851 206.14 279.669 205.382 280.273 203.872C280.607 203.037 282.075 202.274 282.684 201.49C283.4 200.57 284.405 200.058 285.154 199.226C287.55 196.565 291.792 195.112 295.094 196.579C296.088 196.864 302.933 201.081 303.673 201.821C304.915 203.063 311.335 204.354 312.173 205.821C314.089 209.173 316.267 215.876 316.267 220.016C316.267 221.951 317.247 223.646 317.325 225.692C317.417 228.072 317.855 230.488 317.855 232.985C317.855 237.906 317.325 242.742 317.325 247.541C317.325 250.831 315.973 253.523 315.326 256.687C314.463 260.905 313.07 264.857 312.032 269.008C310.669 274.462 308.224 279.663 307.151 285.27C306.126 290.62 303.773 295.576 302.475 300.767C299.495 312.686 292.235 324.641 284.507 334.085C281.109 338.238 277.465 342.186 273.656 345.995C270.14 349.511 265.746 352.152 261.864 355.258C252.466 362.776 243.764 370.594 235.281 379.077C231.259 383.099 226.806 387.345 222.018 390.457C217.568 393.35 213.951 397.418 209.462 400.132C205.518 402.517 201.358 404.992 197.14 406.837C194.115 408.16 190.377 410.307 186.995 410.307C181.508 410.307 176.035 411.366 170.439 411.366C167.338 411.366 158 407.84 158 404.22C158 392.258 164.979 379.633 171.527 370.108C175.745 363.972 181.481 358.346 184.878 351.552C188.243 344.823 192.787 326.376 195.673 319.321C196.593 317.074 201.984 295.14 202.673 292.821C204.051 282.321 200.346 257.916 200.346 246.865C200.346 235.331 198.958 223.871 199.287 212.341C199.355 209.956 200.875 207.555 200.875 205.196C200.875 203.579 202.581 202.371 204.051 202.284C205.42 202.204 207.223 200.757 208.55 200.167Z" fill="#FF2323" stroke="white" stroke-width="3" stroke-linecap="round"/>
<path d="M298.038 253.248C298.038 247.691 298.5 218.5 295.391 217.254C292.283 216.009 290.925 215.691 289.039 218.049C287.807 219.589 285.788 221.963 285.364 223.871C284.898 225.966 284.598 229.556 283.335 231.135C283.113 231.411 282.688 234.074 282.688 234.458C282.688 235.479 282.454 237.497 282.041 238.427C279.276 244.648 278.905 252.411 277.953 259.071C277.32 263.504 276.336 268.379 276.336 272.833C276.336 277.286 274.905 281.537 274.748 285.949C274.577 290.745 272.996 295.423 272.101 300.123C271.04 305.695 269.392 311.584 267.073 316.737C265.579 320.056 263.623 323.201 262.309 326.559C261.355 328.996 259.461 332.976 257.692 334.881C254.23 338.61 251.028 343.314 248.282 347.585C244.897 352.851 239.938 356.74 236.313 361.759C234.664 364.043 231.971 366.763 229.756 368.523C228.049 369.878 226.961 371.843 225.256 373.169C219.891 377.342 214.554 381.43 209.759 386.225C208.503 387.481 213.813 386.112 214.641 385.284C216.427 383.498 220.396 381.964 222.874 381.079C226.198 379.892 228.31 378.026 230.814 375.521C231.674 374.661 233.02 372.898 233.99 372.316C235.29 371.536 235.347 369.81 236.637 369.052C237.512 368.537 239.164 366.421 239.695 365.464C240.585 363.862 242.516 362.894 243.489 361.436C245.724 358.083 248.78 354.379 251.693 351.467C257.776 345.384 261.354 337.033 267.22 330.941C270.935 327.083 274.881 321.724 277.424 317.061C279.507 313.242 282.417 309.805 284.511 305.916C285.744 303.625 286.813 299.764 287.451 297.211C288.099 294.621 289.378 292.247 289.98 289.654C291.294 284.004 293.558 278.524 294.45 272.833C295.507 266.096 298.038 260.165 298.038 253.248Z" fill="white" stroke="white" stroke-width="3" stroke-linecap="round"/>
</g>
<defs>
<clipPath id="clip0_189_195">
<rect width="512" height="512" fill="white"/>
</clipPath>
</defs>
</svg>
