<svg width="512" height="512" viewBox="0 0 512 512" fill="none" xmlns="http://www.w3.org/2000/svg">
<g clip-path="url(#clip0_196_204)">
<rect width="512" height="512" fill="white"/>
<path d="M292.14 33.1341C315.356 36.0628 331.328 43.9841 347.297 60.9747C322.832 59.5617 295.664 63.1267 275.645 78.3781C297.418 70.1353 313.562 63.932 337.567 64.0781C369.678 64.2717 404.629 72.9534 427.733 96.6055C441.336 110.531 450.005 128.336 449.666 148.043C449.329 167.659 439.631 184.02 425.803 197.285C422.104 189.195 417.052 182.219 410.008 176.737C394.895 164.972 377.009 161.432 358.298 163.812C375.895 166.724 389.113 166.578 404.7 177.044C414.561 183.666 422.429 193.827 424.632 205.689C427.449 220.855 419.659 232.16 411.44 243.927C400 260.305 381.523 273.211 363.5 264.5C357.523 261.657 322.21 242.111 316.156 239.582C314.709 238.977 293.346 249.054 291.948 249.654C246.102 283.666 323.632 206.323 321.006 205.475C320.804 205.049 320.725 204.842 320.415 204.432C319.388 203.072 277.368 227.531 275.584 227.5C271.732 227.434 308.331 205.874 305.589 208.184C294.847 200.602 288.77 204.691 278.071 200.318C270.611 197.267 264.666 191.49 257.134 188.504C250.774 185.983 244.431 185.163 238.01 187.977C236.158 190.223 234.747 192.876 233.715 195.599C233.239 196.855 233.003 198.277 233.693 199.507C234.581 201.09 236.623 201.576 238.231 202.12L239.106 202.41C239.604 204.01 239.655 205.016 239.452 206.684C239.43 206.857 239.406 207.031 239.382 207.205C240.109 209.363 241.974 211.038 243.471 212.712C242.113 214.562 241.182 216.332 240.694 218.594C239.506 224.101 239.457 232.984 242.85 237.688C243.969 239.241 245.458 239.293 247.22 239.582C249.446 239.946 249.016 243.212 249.106 245.018C249.736 257.66 246.047 292.597 254.8 301.644C255.951 302.833 257.35 303.324 258.983 303.26C260.702 303.192 262.445 302.748 263.607 301.404C268.537 295.71 265.655 283.257 264.972 276.269C268.907 284.045 272.857 291.758 274.009 300.523C274.668 305.541 274.782 310.634 275.584 315.633C276.555 321.689 278.73 330.416 284.202 334.086C285.499 334.956 287.017 335.377 288.553 334.865C290.11 334.345 291.236 332.962 291.948 331.543C298.098 319.281 285.961 287.172 281.904 274.647C279 265.68 274.941 250.465 279.924 241.719C280.543 240.633 280.945 239.96 282.184 239.603C283.961 241.215 283.732 245.211 285.182 247.413C286.014 248.677 287.071 249.391 288.558 249.654C288.88 249.712 289.205 249.756 289.528 249.806L289.339 250.668L289.923 249.929C293.336 262.043 296.593 274.238 300.687 286.144C321.214 345.818 351.912 400.384 385.194 453.71C384.561 454.068 382.804 453.453 382.038 453.296C335.003 442.829 288.012 436.316 239.779 435.356C237.409 425.552 235.51 415.619 233.19 405.798C225.137 371.687 216.201 337.135 203.793 304.32C198.922 291.436 193.887 278.645 186.513 266.948C188.75 276.071 193.139 285.28 196.462 294.092C201.711 307.839 206.513 321.741 210.866 335.798C198.876 336.558 187.013 333.98 175.62 330.522C178.307 328.496 180.838 326.29 183.211 323.906C185.586 321.522 187.781 318.982 189.796 316.286C184.552 319.54 179.733 323.464 174.554 326.823C160.607 335.869 144.459 341.839 127.815 342.948C116.628 343.693 102.417 342.187 93.733 334.304C89.6877 330.632 86.992 325.724 86.7387 320.218C86.2141 308.834 94.5006 302.487 101.545 295.022C100.566 295.462 99.5959 295.921 98.6348 296.4C92.1134 299.658 86.4389 305.135 84.2197 312.214C82.0602 319.105 83.3685 325.578 86.6946 331.789C85.2583 332.101 83.815 332.375 82.3646 332.61C69.414 334.583 55.5941 329.423 45.2851 321.813C31.9231 311.951 23.672 297.596 21.3129 281.21C17.3333 253.57 29.3091 224.151 44.8834 201.749C50.903 193.09 58.0065 185.162 64.3358 176.719C44.6674 191.598 32.8226 212.624 23.5347 234.965C21.1758 231.88 19.1125 228.708 17.4404 225.196C9.47674 208.459 10.9596 188.808 17.0172 171.706C26.6536 144.497 47.5317 121.02 73.1122 107.71C80.9678 103.622 89.4579 101.061 97.4242 97.2227C92.7724 97.6263 88.362 98.6855 83.8272 99.7397C86.2944 96.5706 88.8716 93.4939 91.5588 90.5094C94.2453 87.5249 97.0355 84.6402 99.9294 81.8554C102.823 79.0705 105.812 76.3926 108.897 73.8216C111.982 71.2504 115.154 68.7926 118.415 66.4482C146.465 46.3045 181.172 34.6498 215.83 35.8705C223.876 36.1542 231.747 37.479 239.672 38.7836C231.324 42.5497 224.824 46.8819 219.003 54.0241C243.296 39.0047 262.978 30.5165 292.14 33.1341Z" fill="#ED6A5A"/>
<path d="M462.891 420.946C463.175 421.391 463.395 421.887 463.635 422.357C463.563 422.53 463.533 422.728 463.419 422.877C462.793 423.693 448.041 433.065 445.94 434.474C420.492 451.549 394.482 468.201 369.724 486.266C369.015 485.833 368.97 485.966 368.672 485.13C370.413 482.196 453.596 426.22 462.891 420.946Z" fill="black"/>
<path d="M118.072 407.272C142.911 417.833 163.636 436.571 183.738 454.116C188.304 458.101 197.261 465.262 200.574 470.078C201.122 470.874 201.126 471.21 200.937 472.132C197.136 469.992 189.795 462.24 186.098 459.047C172.272 447.108 158.38 434.887 143.511 424.264C139.034 421.065 134.328 418.083 129.594 415.278C127.393 413.973 118.595 409.75 117.769 408.53L118.072 407.272Z" fill="black"/>
<path d="M167.262 394.695C167.79 394.885 168.189 395.066 168.634 395.418C173.585 399.322 220.445 470.652 220.785 474.349C219.946 474.255 219.645 474.301 219.018 473.688C217.731 472.429 211.732 462.451 210.044 459.901L177.793 410.902C175.808 407.948 167.352 397.424 167.262 394.695Z" fill="black"/>
<path d="M319.218 340.304L320.158 340.518C322.412 342.631 340.335 427.82 342.463 438.855C332.804 435.823 321.854 435.708 311.798 436.165C285.711 437.351 261.588 442.989 237.659 453.423L234.062 455.044C232.482 447.648 231.33 440.14 229.997 432.695L221.12 381.901C219.681 373.621 218.431 365.245 216.636 357.037C218.543 355.693 220.459 354.325 222.472 353.145C242.082 341.652 276.923 335.168 299.643 336.73C306.36 337.192 312.725 338.632 319.218 340.304Z" fill="#FAF2B0"/>
<path d="M282.185 353.697C282.734 353.834 283.279 353.984 283.821 354.147C284.362 354.31 284.899 354.487 285.432 354.676C285.965 354.866 286.493 355.069 287.016 355.284C287.539 355.5 288.056 355.728 288.568 355.969C289.08 356.21 289.586 356.463 290.085 356.729C290.584 356.995 291.076 357.273 291.562 357.562C292.048 357.852 292.526 358.154 292.997 358.468C293.468 358.781 293.931 359.106 294.385 359.442C294.84 359.778 295.287 360.125 295.725 360.484C296.163 360.842 296.591 361.21 297.011 361.59C297.431 361.969 297.841 362.358 298.242 362.758C298.642 363.157 299.033 363.566 299.413 363.984C299.794 364.403 300.164 364.831 300.523 365.267C300.883 365.704 301.231 366.149 301.569 366.603C301.907 367.057 302.233 367.519 302.548 367.988C302.863 368.458 303.166 368.935 303.458 369.42C303.749 369.905 304.029 370.396 304.296 370.895C304.563 371.393 304.818 371.898 305.061 372.409C305.303 372.92 305.533 373.437 305.751 373.959C305.968 374.481 306.172 375.009 306.364 375.541C306.555 376.073 306.733 376.61 306.898 377.151C307.063 377.692 307.214 378.237 307.353 378.785C307.491 379.334 307.615 379.885 307.727 380.44C307.838 380.994 307.935 381.552 308.019 382.111C308.103 382.67 308.173 383.231 308.229 383.794C308.285 384.357 308.328 384.921 308.356 385.486C308.385 386.05 308.399 386.616 308.399 387.182C308.4 387.747 308.387 388.313 308.36 388.878C308.333 389.443 308.292 390.007 308.238 390.57C308.183 391.133 308.115 391.694 308.033 392.253C307.95 392.813 307.854 393.37 307.744 393.925C307.635 394.48 307.511 395.032 307.375 395.581C307.238 396.13 307.088 396.675 306.924 397.216C306.761 397.758 306.584 398.295 306.394 398.827C306.204 399.361 306.001 399.889 305.785 400.411C305.57 400.934 305.341 401.451 305.1 401.963C304.858 402.475 304.605 402.98 304.339 403.479C304.073 403.978 303.794 404.47 303.504 404.956C303.214 405.441 302.912 405.919 302.598 406.39C302.285 406.861 301.96 407.323 301.623 407.778C301.287 408.233 300.939 408.679 300.581 409.117C300.222 409.554 299.854 409.983 299.474 410.402C299.095 410.822 298.705 411.232 298.306 411.632C297.906 412.032 297.497 412.423 297.078 412.803C296.66 413.183 296.232 413.553 295.795 413.912C295.358 414.272 294.912 414.62 294.458 414.958C294.004 415.295 293.542 415.621 293.073 415.936C292.602 416.25 292.125 416.553 291.64 416.844C291.155 417.135 290.664 417.415 290.165 417.682C289.667 417.949 289.162 418.204 288.65 418.446C288.139 418.688 287.622 418.918 287.1 419.135C286.578 419.352 286.05 419.556 285.518 419.747C284.985 419.938 284.449 420.116 283.908 420.28C283.366 420.445 282.821 420.596 282.273 420.734C281.724 420.872 281.173 420.996 280.618 421.107C280.063 421.218 279.506 421.315 278.947 421.398C278.387 421.482 277.826 421.552 277.263 421.607C276.7 421.663 276.137 421.705 275.572 421.734C275.007 421.762 274.441 421.776 273.876 421.777C273.31 421.777 272.745 421.764 272.18 421.736C271.615 421.709 271.051 421.668 270.488 421.613C269.925 421.557 269.364 421.489 268.804 421.406C268.245 421.323 267.687 421.227 267.133 421.117C266.578 421.007 266.026 420.884 265.477 420.747C264.929 420.61 264.384 420.459 263.843 420.296C263.302 420.132 262.765 419.955 262.233 419.765C261.701 419.575 261.174 419.372 260.651 419.156C260.129 418.94 259.612 418.711 259.101 418.47C258.59 418.229 258.085 417.975 257.586 417.709C257.088 417.443 256.596 417.165 256.111 416.874C255.625 416.584 255.148 416.282 254.678 415.969C254.208 415.655 253.745 415.33 253.291 414.993C252.837 414.657 252.391 414.31 251.954 413.952C251.517 413.594 251.088 413.225 250.669 412.846C250.25 412.467 249.841 412.077 249.441 411.678C249.041 411.278 248.651 410.869 248.271 410.451C247.891 410.033 247.521 409.605 247.163 409.168C246.803 408.732 246.455 408.287 246.118 407.833C245.781 407.379 245.455 406.918 245.141 406.448C244.826 405.978 244.524 405.501 244.232 405.016C243.942 404.532 243.663 404.041 243.396 403.542C243.129 403.044 242.874 402.54 242.632 402.029C242.39 401.518 242.16 401.002 241.944 400.48C241.727 399.958 241.523 399.431 241.332 398.899C241.141 398.367 240.963 397.831 240.799 397.29C240.634 396.749 240.483 396.205 240.345 395.656C240.207 395.108 240.082 394.557 239.972 394.003C239.861 393.449 239.764 392.892 239.68 392.333C239.596 391.774 239.527 391.213 239.47 390.651C239.414 390.088 239.372 389.525 239.344 388.96C239.316 388.396 239.301 387.831 239.3 387.266C239.3 386.7 239.313 386.135 239.34 385.571C239.367 385.006 239.408 384.443 239.463 383.88C239.518 383.318 239.586 382.757 239.669 382.198C239.751 381.638 239.847 381.081 239.956 380.527C240.066 379.973 240.189 379.421 240.326 378.873C240.462 378.324 240.613 377.779 240.776 377.238C240.939 376.697 241.116 376.16 241.306 375.628C241.495 375.095 241.698 374.568 241.914 374.046C242.129 373.523 242.358 373.006 242.599 372.495C242.84 371.984 243.093 371.479 243.359 370.98C243.625 370.481 243.903 369.989 244.192 369.504C244.482 369.019 244.784 368.541 245.098 368.071C245.411 367.6 245.736 367.137 246.072 366.683C246.408 366.229 246.755 365.783 247.113 365.345C247.471 364.908 247.839 364.48 248.218 364.06C248.597 363.641 248.986 363.231 249.385 362.831C249.784 362.431 250.193 362.041 250.611 361.661C251.03 361.28 251.457 360.911 251.894 360.552C252.33 360.192 252.775 359.844 253.228 359.506C253.682 359.169 254.143 358.843 254.613 358.528C255.082 358.214 255.559 357.911 256.043 357.619C256.528 357.328 257.019 357.049 257.518 356.781C258.016 356.515 258.52 356.26 259.03 356.017C259.541 355.775 260.057 355.545 260.579 355.328C261.101 355.111 261.628 354.906 262.16 354.715C262.691 354.524 263.227 354.346 263.768 354.181C264.309 354.016 264.853 353.864 265.401 353.726C265.95 353.588 266.501 353.463 267.055 353.352C267.609 353.241 268.166 353.143 268.725 353.06C269.283 352.976 269.844 352.906 270.406 352.849C270.969 352.793 271.532 352.751 272.097 352.722C272.661 352.693 273.226 352.678 273.791 352.677C274.356 352.676 274.921 352.689 275.486 352.716C276.05 352.743 276.614 352.783 277.177 352.838C277.74 352.892 278.3 352.96 278.859 353.042C279.419 353.124 279.976 353.22 280.531 353.329C281.085 353.438 281.636 353.561 282.185 353.697Z" fill="black"/>
<path d="M279.894 353.646C282.023 354.168 284.105 354.775 286.114 355.663C294.725 359.47 299.588 366.021 302.853 374.628C299.582 372.309 296.266 370.56 292.501 369.18C286.055 373.434 278.423 384.958 274.363 391.66L272.171 389.821C264.212 382.264 255.208 376.251 246.494 369.638C249.088 365.2 252.225 360.91 256.475 357.916C263.35 353.073 271.816 352.287 279.894 353.646Z" fill="#F80F00"/>
<path d="M246.308 370.614C250.231 373.787 254.592 376.497 258.642 379.515C263.871 383.412 268.661 387.672 273.459 392.083C268.592 400.36 269.198 403.317 261.57 410.868L257.46 415.022C256.786 414.582 256.129 414.117 255.489 413.629C254.848 413.141 254.226 412.63 253.623 412.097C253.019 411.563 252.436 411.008 251.873 410.433C251.31 409.857 250.769 409.262 250.249 408.646C249.729 408.031 249.232 407.398 248.758 406.747C248.284 406.096 247.834 405.429 247.409 404.745C246.984 404.062 246.583 403.364 246.208 402.651C245.833 401.938 245.485 401.213 245.163 400.475C240.637 390.164 242.331 380.697 246.308 370.614Z" fill="#FAF2B0"/>
<path d="M292.135 370.105C295.913 371.15 299.142 372.758 302.427 374.865C302.971 376.064 303.429 377.296 303.803 378.558C304.177 379.821 304.463 381.104 304.661 382.406C306.338 392.833 303.465 402.083 297.414 410.548C295.726 409.74 294.174 408.869 292.609 407.845C286.223 403.375 280.81 397.508 275.155 392.18C279.685 384.501 285.428 376.048 292.135 370.105Z" fill="#FAF2B0"/>
<path d="M274.255 392.589C281.187 399.281 288.211 407.193 296.986 411.386C292.246 415.767 287.491 418.398 281.268 420.104C272.601 421.488 265.592 419.92 257.958 415.739C261.593 411.573 265.986 408.128 268.901 403.345C270.906 400.056 271.961 396.269 274.007 392.981L274.255 392.589Z" fill="#F80F00"/>
<path d="M278.867 261.063C280.484 261.402 282.084 262.088 283.642 262.641C287.252 271.934 288.733 282.66 293.808 291.266C296.57 295.95 300.245 299.023 304.327 302.471C312.989 309.789 315.82 321.105 318.215 331.714C293.448 324.696 264.929 328.803 240.766 336.263C232.02 339.072 222.603 343.04 215.208 348.509C214.635 345.244 214.319 341.913 213.797 338.633C211.773 325.917 212.412 320.162 219.716 309.173C221.999 305.738 224.76 302.197 225.705 298.11C227.324 291.105 225.291 276.843 224.516 269.369C240.378 260.847 261.158 256.468 278.867 261.063Z" fill="#C86202"/>
<path d="M226.942 307.848C227.384 308.181 227.726 308.434 228.038 308.903C228.574 309.712 225.624 314.669 225.185 315.903C224.72 317.21 224.505 318.581 224.397 319.96C224.034 324.623 227.079 334.766 226.167 338.093C226.022 338.623 225.266 338.782 224.791 339C224.388 338.875 224.247 338.911 223.999 338.621C222.426 336.778 221.721 320.734 221.874 317.844C222.051 314.494 224.438 310.097 226.942 307.848Z" fill="#FEFEFF"/>
<path d="M219.177 316.273L220.171 316.951C220.875 319.019 222.064 334.074 222.15 336.96C222.183 338.056 222.05 338.334 221.289 339.102C220.634 338.984 220.206 338.859 219.634 338.516C218.613 335.105 217.978 323.993 217.979 319.882C217.98 318.29 218.027 317.438 219.177 316.273Z" fill="#FEFEFF"/>
<path d="M246.816 458.171C251.006 455.397 257.368 454.056 262.209 452.708C284.712 446.439 315.544 441.149 338.69 445.707C340.554 446.093 342.412 446.51 344.263 446.956C345.699 453.54 347.011 460.148 348.199 466.78C329.576 459.792 292.048 467.367 273.232 472.284C265.443 474.319 257.84 476.847 250.21 479.399C246.504 480.866 242.778 482.436 239.828 485.172C238.241 477.927 237.379 470.523 235.767 463.268C238.743 461.6 241.707 460.189 244.892 458.96L246.816 458.171Z" fill="#C86202"/>
<path d="M246.816 458.171C247.95 461.836 250.756 474.627 250.263 477.974L250.21 479.399C246.504 480.866 242.778 482.436 239.828 485.172C238.241 477.927 237.379 470.523 235.767 463.268C238.743 461.6 241.707 460.189 244.893 458.96L246.816 458.171Z" fill="#C86202"/>
<path d="M246.816 458.171C247.95 461.836 250.756 474.627 250.263 477.974C249.529 478.018 248.883 477.957 248.156 477.856C246.434 475.947 245.046 462.131 244.893 458.96L246.816 458.171Z" fill="#FEFEFF"/>
<path d="M241.818 461.771C242.386 462.337 242.553 462.551 242.74 463.363C243.16 465.19 244.34 475.337 243.926 476.716C243.825 477.052 243.55 477.309 243.362 477.605C243.205 477.464 243.034 477.338 242.89 477.184C241.673 475.873 240.773 467.228 240.693 465.114C240.632 463.517 240.715 462.954 241.818 461.771Z" fill="#FEFEFF"/>
<path d="M268.8 216.182C269.34 216.257 269.752 216.294 270.23 216.578C271.118 217.106 280.031 249.63 280.914 252.833C262.839 248.637 246.02 250.392 228.913 257.516C227.028 258.423 225.316 259.422 223.575 260.581C222.751 254.168 222.33 247.656 221.712 241.215C221.146 235.305 220.377 229.403 219.978 223.479C233.736 215.783 253.454 213.744 268.8 216.182Z" fill="#FAF2B0"/>
<path d="M248.356 221.238C248.587 221.244 248.818 221.257 249.049 221.277C249.279 221.298 249.509 221.327 249.738 221.363C249.967 221.399 250.194 221.442 250.42 221.493C250.646 221.544 250.87 221.602 251.092 221.668C251.314 221.734 251.534 221.807 251.751 221.888C251.968 221.968 252.183 222.056 252.394 222.15C252.605 222.245 252.813 222.346 253.018 222.454C253.223 222.563 253.424 222.678 253.621 222.8C253.818 222.921 254.011 223.049 254.2 223.184C254.388 223.318 254.572 223.459 254.751 223.606C254.931 223.752 255.105 223.904 255.274 224.063C255.444 224.221 255.607 224.384 255.766 224.553C255.924 224.722 256.076 224.896 256.223 225.075C256.37 225.254 256.511 225.438 256.646 225.627C256.781 225.815 256.909 226.008 257.031 226.205C257.153 226.401 257.268 226.602 257.377 226.807C257.485 227.012 257.587 227.219 257.682 227.431C257.777 227.642 257.865 227.856 257.945 228.073C258.026 228.29 258.099 228.51 258.166 228.732C258.232 228.954 258.29 229.178 258.342 229.404C258.393 229.629 258.437 229.857 258.473 230.085C258.509 230.314 258.538 230.544 258.559 230.775C258.58 231.006 258.594 231.236 258.599 231.468C258.605 231.7 258.603 231.931 258.593 232.163C258.584 232.394 258.567 232.625 258.542 232.855C258.517 233.085 258.485 233.315 258.444 233.543C258.404 233.771 258.357 233.997 258.302 234.222C258.247 234.447 258.185 234.67 258.115 234.891C258.045 235.112 257.968 235.33 257.884 235.546C257.8 235.762 257.708 235.975 257.61 236.184C257.511 236.394 257.406 236.6 257.294 236.803C257.182 237.006 257.064 237.205 256.939 237.399C256.814 237.594 256.682 237.785 256.545 237.971C256.407 238.157 256.263 238.339 256.113 238.515C255.964 238.692 255.808 238.863 255.647 239.03C255.485 239.196 255.319 239.357 255.148 239.512C254.976 239.668 254.799 239.817 254.617 239.961C254.436 240.104 254.25 240.242 254.059 240.373C253.868 240.505 253.673 240.63 253.474 240.748C253.275 240.866 253.072 240.978 252.866 241.083C252.659 241.188 252.45 241.286 252.237 241.377C252.024 241.468 251.808 241.552 251.589 241.629C251.371 241.706 251.15 241.776 250.927 241.838C250.704 241.9 250.479 241.955 250.252 242.002C250.026 242.049 249.798 242.089 249.569 242.122C249.339 242.154 249.109 242.178 248.878 242.195C248.647 242.212 248.416 242.222 248.184 242.223C247.953 242.225 247.721 242.219 247.49 242.205C247.321 242.195 247.151 242.181 246.982 242.163C246.813 242.145 246.645 242.123 246.478 242.096C246.31 242.07 246.143 242.04 245.977 242.005C245.81 241.97 245.645 241.932 245.481 241.89C245.316 241.847 245.153 241.801 244.991 241.75C244.828 241.7 244.667 241.645 244.508 241.587C244.349 241.529 244.191 241.467 244.034 241.401C243.878 241.335 243.723 241.265 243.57 241.191C243.417 241.118 243.265 241.041 243.116 240.961C242.967 240.879 242.819 240.795 242.674 240.707C242.529 240.619 242.386 240.528 242.245 240.433C242.104 240.338 241.966 240.24 241.829 240.138C241.694 240.037 241.56 239.932 241.429 239.824C241.298 239.716 241.169 239.605 241.044 239.49C240.918 239.376 240.796 239.259 240.676 239.138C240.556 239.018 240.439 238.895 240.325 238.769C240.211 238.643 240.101 238.515 239.993 238.383C239.885 238.252 239.781 238.118 239.68 237.982C239.578 237.846 239.48 237.707 239.386 237.565C239.292 237.424 239.201 237.281 239.113 237.135C239.026 236.99 238.942 236.842 238.861 236.693C238.781 236.543 238.705 236.392 238.632 236.238C238.559 236.085 238.489 235.93 238.424 235.773C238.359 235.616 238.297 235.458 238.239 235.298C238.181 235.139 238.128 234.978 238.078 234.815C238.028 234.653 237.982 234.49 237.94 234.325C237.898 234.161 237.86 233.995 237.826 233.829C237.792 233.663 237.762 233.496 237.736 233.328C237.71 233.16 237.688 232.991 237.671 232.823C237.653 232.654 237.64 232.484 237.63 232.315C237.621 232.145 237.615 231.976 237.614 231.806C237.613 231.636 237.616 231.466 237.623 231.297C237.63 231.127 237.641 230.958 237.656 230.788C237.671 230.619 237.691 230.45 237.714 230.282C237.737 230.114 237.765 229.947 237.796 229.78C237.828 229.613 237.864 229.447 237.903 229.282C237.943 229.117 237.986 228.953 238.034 228.789C238.082 228.627 238.133 228.465 238.189 228.304C238.244 228.144 238.303 227.985 238.366 227.827C238.43 227.67 238.497 227.514 238.567 227.359C238.638 227.205 238.712 227.052 238.791 226.901C238.868 226.751 238.95 226.602 239.035 226.455C239.121 226.308 239.21 226.164 239.302 226.021C239.395 225.878 239.49 225.738 239.59 225.601C239.689 225.463 239.791 225.327 239.897 225.195C240.002 225.062 240.111 224.931 240.223 224.804C240.335 224.676 240.451 224.551 240.569 224.429C240.687 224.307 240.808 224.188 240.932 224.072C241.056 223.956 241.182 223.843 241.312 223.733C241.441 223.623 241.573 223.516 241.708 223.413C241.842 223.309 241.979 223.209 242.119 223.112C242.258 223.015 242.4 222.922 242.544 222.832C242.688 222.742 242.834 222.655 242.983 222.572C243.131 222.489 243.281 222.41 243.432 222.334C243.584 222.259 243.738 222.187 243.894 222.119C244.05 222.05 244.207 221.986 244.365 221.925C244.524 221.865 244.684 221.808 244.845 221.755C245.006 221.702 245.169 221.654 245.333 221.609C245.497 221.564 245.662 221.523 245.827 221.486C245.993 221.449 246.159 221.417 246.327 221.388C246.494 221.359 246.662 221.334 246.831 221.313C246.999 221.293 247.168 221.276 247.337 221.263C247.507 221.251 247.676 221.243 247.846 221.238C248.016 221.234 248.186 221.234 248.356 221.238Z" fill="#F80F00"/>
<path d="M260.481 171.942C262.36 172.45 263.986 173.256 265.715 174.13C269.412 181.92 267.033 189.702 264.431 197.352C261.02 196.578 257.914 195.513 254.353 195.82L254.353 196.036C255.968 196.496 257.434 196.422 259.066 196.641C261.207 196.928 263.343 197.622 265.393 198.283C266.272 201.288 267.093 204.31 267.855 207.347C253.035 204.252 232.02 207.248 218.848 214.761L218.324 209.402L217.811 206.318C222.449 205.325 227.347 204.058 231.587 201.917L230.418 201.987C226.234 202.196 222.186 203.678 218.078 204.43C216.057 204.799 213.695 205.178 211.936 203.846C208.17 200.998 210.681 192.753 210.819 188.652C210.915 185.803 210.661 183.1 210.229 180.287C210.447 180.145 210.667 180.007 210.889 179.872C223.577 172.163 246.252 168.558 260.481 171.942Z" fill="#C86202"/>
<path d="M219.298 179.26C219.378 179.318 219.468 179.364 219.537 179.435C220.052 179.964 220.233 180.429 220.311 181.143C219.578 182.274 218.421 182.463 217.276 183.122C216.513 183.561 215.988 184.068 215.844 184.985C215.713 185.82 215.979 186.905 216.441 187.604C216.755 186.458 216.983 185.162 217.698 184.2C218.344 184.251 218.178 184.107 218.54 184.565C219.433 185.695 221.258 195.963 220.935 197.345C220.823 197.827 220.77 197.702 220.27 198.001C219.936 197.919 219.611 197.863 219.311 197.675C218.127 196.935 217.689 195.336 217.587 194.046C217.475 192.634 217.352 191.426 216.825 190.096C216.786 189.998 216.744 189.9 216.703 189.801L216.229 190.217C216.471 193.456 217.398 196.383 218.443 199.441L215.463 200.484C214.62 197.792 213.119 188.72 213.934 186.204C214.488 186.127 214.683 186.125 215.147 185.788L215.04 185.095C214.448 184.693 213.765 184.314 213.372 183.701C213.127 183.317 213.317 182.964 213.393 182.545C214.565 180.762 217.382 180.023 219.298 179.26Z" fill="#FEFEFF"/>
<path d="M343.51 467.319C344.287 467.509 345.143 467.676 345.89 467.966C346.686 468.274 346.848 468.708 347.141 469.453C346.618 471.076 344.991 471.998 343.611 472.858C325.276 484.282 265.27 495.329 244.486 490.426C243.673 490.168 242.77 489.846 242.023 489.439C241.259 489.021 241.027 488.587 240.753 487.801C241.011 486.667 241.792 486.001 242.724 485.383C247.326 482.334 253.327 480.456 258.568 478.726C279.651 471.768 321.475 462.847 343.51 467.319Z" fill="#C86202"/>
<path d="M317.7 333.578L318.563 333.803C319.381 335.019 319.55 336.66 319.856 338.077C317.937 337.543 316.009 336.998 314.065 336.559C286.647 330.374 242.129 337.807 218.336 352.85C217.686 353.401 217.196 353.858 216.315 354.007C216.158 354.033 215.861 353.573 215.767 353.462C215.742 353.135 215.737 353.27 215.84 352.776C216.253 350.783 218.739 348.904 220.353 347.893C246.064 331.786 288.168 326.706 317.7 333.578Z" fill="url(#paint0_linear_196_204)"/>
<path d="M343.089 441.505C343.416 442.433 343.624 443.466 343.88 444.42C311.909 437.328 267.751 445.931 238.208 459.01L235.242 460.545L234.641 457.186C243.074 453.532 251.514 450.01 260.294 447.263C282.939 440.177 315.34 435.116 338.789 440.165C340.222 440.451 341.692 441.056 343.089 441.505Z" fill="url(#paint1_linear_196_204)"/>
<path d="M280.06 255.245C280.552 255.332 280.978 255.511 281.444 255.686C282.307 256.872 282.522 258.406 282.87 259.811C282.298 259.617 281.723 259.435 281.145 259.266C264.471 254.386 241.053 257.884 225.962 266.199C225.347 266.665 225.278 266.82 224.484 266.927C223.695 266.034 223.816 264.103 223.727 262.937C224.251 262.607 224.781 262.285 225.316 261.973C241.191 252.712 262.455 250.635 280.06 255.245Z" fill="url(#paint2_linear_196_204)"/>
<path d="M267.872 209.669L268.54 209.918C269.339 211.082 269.549 212.544 269.878 213.899C253.641 211.449 235.381 213.691 220.524 220.774C220.327 220.914 219.986 221.018 219.76 221.113C219.105 220.16 219.277 218.44 219.236 217.306C233.158 209.414 252.196 206.526 267.872 209.669Z" fill="url(#paint3_linear_196_204)"/>
<path d="M466.432 404.598C467.104 404.823 467.644 405.222 468.241 405.596L468.334 406.629C464.777 409.923 460.193 412.523 456.149 415.237L435.653 429.056C414.843 443.206 394.393 457.974 373.378 471.809C372.872 471.699 372.503 471.431 372.059 471.172L371.996 470.208C374.971 465.774 455.94 410.863 466.432 404.598Z" fill="black"/>
<path d="M374.114 388C374.848 388.424 375.294 388.815 375.902 389.391C375.921 389.878 376.077 390.378 375.96 390.851C375.308 393.508 369.686 402.462 368.111 405.442C357.565 425.394 346.361 445.146 336.6 465.49C336.03 465.189 335.529 464.791 335.006 464.416C334.479 460.021 368.707 395.972 374.114 388Z" fill="black"/>
</g>
<defs>
<linearGradient id="paint0_linear_196_204" x1="266.708" y1="332.207" x2="267.964" y2="348.935" gradientUnits="userSpaceOnUse">
<stop stop-color="#FFF6B4"/>
<stop offset="1" stop-color="#FFFFE5"/>
</linearGradient>
<linearGradient id="paint1_linear_196_204" x1="287.835" y1="441.189" x2="289.273" y2="451.591" gradientUnits="userSpaceOnUse">
<stop stop-color="#FFFABB"/>
<stop offset="1" stop-color="#FFFEE7"/>
</linearGradient>
<linearGradient id="paint2_linear_196_204" x1="252.399" y1="253.802" x2="253.247" y2="263.37" gradientUnits="userSpaceOnUse">
<stop stop-color="#FFF6D2"/>
<stop offset="1" stop-color="#FEFCF4"/>
</linearGradient>
<linearGradient id="paint3_linear_196_204" x1="243.458" y1="209.856" x2="244.483" y2="216.659" gradientUnits="userSpaceOnUse">
<stop stop-color="#FFF5D6"/>
<stop offset="1" stop-color="#FBFBFF"/>
</linearGradient>
<clipPath id="clip0_196_204">
<rect width="512" height="512" fill="white"/>
</clipPath>
</defs>
</svg>
