<svg width="512" height="512" viewBox="0 0 512 512" fill="none" xmlns="http://www.w3.org/2000/svg">
<rect width="512" height="512" fill="white"/>
<path d="M271.834 91.8939C269.746 90.2243 268.823 88.2673 266.276 87.13C264.703 87.13 261.249 86.5692 260.041 87.777C258.871 88.9477 258.285 92.0659 257.689 93.4819C256.739 95.738 255.345 98.6031 255.16 101.01C254.929 104.011 253.043 106.879 253.043 109.92C253.043 113.264 251.369 116.665 250.955 119.977C250.479 123.784 250.998 127.928 249.573 131.593C246.748 138.856 245.257 146.024 239.692 151.589C238.301 152.98 234.657 153.577 232.811 154.236C229.195 155.527 225.983 157.271 222.46 158.706C220.281 159.593 218.553 161.576 216.52 162.705C214.395 163.885 211.275 164.888 209.668 166.763C208.511 168.113 205.163 169.637 203.522 170.233C202.184 170.72 198.176 174.066 197.993 175.526C197.903 176.249 196.955 176.692 196.523 177.232C196.08 177.786 196.405 179.594 196.405 180.29V186.378C196.405 190.218 200.543 193.138 202.757 195.905C205.541 199.385 207.488 201.463 212.285 201.463C217.179 201.463 220.963 200.24 223.518 195.641C225.682 191.746 228.436 188.079 232.135 185.613C234.273 184.188 236.654 182.901 237.957 180.555C238.861 178.928 239.28 183.248 239.28 184.26C239.28 190.781 240.53 197.156 240.868 203.58C241.128 208.506 244.109 212.056 247.485 215.431C249.618 217.565 255.218 224.139 258.865 222.518C260.754 221.679 262.236 221.617 263.747 220.107C265.401 218.453 267.072 216.192 268.393 214.284C270.026 211.926 271.812 209.395 273.804 207.403C275.029 206.178 276.953 204.452 277.421 202.816C277.852 201.307 280.84 199.132 281.949 198.023C283.964 196.008 285.401 192.943 287.213 190.612C287.913 189.712 288.404 188.571 289.301 189.289C290.053 189.89 290.922 190.197 291.183 191.112C291.311 191.561 293.139 192.907 293.536 193.523C294.275 194.673 295.168 195.67 295.918 196.817C297.474 199.197 300.895 202.859 301.211 205.698C301.499 208.294 305.691 207.286 307.563 207.286C309.52 207.286 311.397 207.676 312.444 205.698C313.416 203.862 314.511 201.718 315.738 200.14C316.689 198.917 316.032 195.315 316.032 193.788C316.032 191.055 315.725 188.605 314.855 185.995C312.97 180.338 310.682 174.722 306.769 169.939C306.026 169.031 305.135 167.38 304.887 166.263C304.648 165.189 303.308 165.312 302.799 164.675C302.333 164.093 300.393 163.362 299.623 163.087C298.572 162.712 297.762 161.498 296.712 161.264C293.579 160.568 287.491 157.151 285.743 154.354C284.837 152.905 281.746 152.346 280.685 150.648C279.709 149.087 277.776 147.622 276.45 146.296C274.326 144.172 270.674 141.197 270.01 138.209C269.762 137.093 268.922 136.926 268.922 135.563V132.387C268.922 130.773 268.89 126.855 270.246 125.77C271.025 125.147 272.098 120.263 272.098 119.154V113.067C272.098 107.958 272.628 103.089 272.628 97.9517C272.628 96.3486 273.207 92.9927 271.834 91.8939Z" fill="#75FF53" stroke="#75FF53" stroke-width="3" stroke-linecap="round"/>
<path d="M212.55 214.167C218.171 211.669 222.574 207.728 227.106 203.581C227.106 205.698 226.048 211.52 226.048 213.638C226.048 215.495 227.255 216.822 227.665 218.666C228.134 220.774 230.473 222.88 231.459 224.753C232.638 226.995 234.999 229.792 236.928 231.37C240.078 233.947 245.835 236.398 249.632 236.398C251.567 236.398 261.388 237.613 262.571 236.134C263.469 235.011 265.791 234.246 267.07 233.222C268.416 232.146 269.657 231.068 270.922 229.929C271.933 229.019 273.547 227.746 274.216 226.577C275.411 224.485 278.603 223.614 279.921 221.577C280.851 220.14 283.669 219.382 284.273 217.872C284.607 217.037 286.075 216.274 286.684 215.49C287.4 214.57 288.405 214.058 289.154 213.226C291.55 210.565 295.792 209.112 299.094 210.579C300.088 210.864 306.933 215.081 307.673 215.821C308.915 217.063 315.335 218.354 316.173 219.821C318.089 223.173 320.267 229.876 320.267 234.016C320.267 235.951 321.247 237.646 321.325 239.692C321.417 242.072 321.855 244.488 321.855 246.985C321.855 251.906 321.325 256.742 321.325 261.541C321.325 264.831 319.973 267.523 319.326 270.687C318.463 274.905 317.07 278.857 316.032 283.008C314.669 288.462 312.224 293.663 311.151 299.27C310.126 304.62 307.773 309.576 306.475 314.767C303.495 326.686 296.235 338.641 288.507 348.085C285.109 352.238 281.465 356.186 277.656 359.995C274.14 363.511 269.746 366.152 265.864 369.258C256.466 376.776 247.764 384.594 239.281 393.077C235.259 397.099 230.806 401.345 226.018 404.457C221.568 407.35 217.951 411.418 213.462 414.132C209.518 416.517 205.358 418.992 201.14 420.837C198.115 422.16 194.377 424.307 190.995 424.307C185.508 424.307 180.035 425.366 174.439 425.366C171.338 425.366 162 421.84 162 418.22C162 406.258 168.979 393.633 175.527 384.108C179.745 377.972 185.481 372.346 188.878 365.552C192.243 358.823 196.787 340.376 199.673 333.321C200.593 331.074 205.984 309.14 206.673 306.821C208.051 296.321 204.346 271.916 204.346 260.865C204.346 249.331 202.958 237.871 203.287 226.341C203.355 223.956 204.875 221.555 204.875 219.196C204.875 217.579 206.581 216.371 208.051 216.284C209.42 216.204 211.223 214.757 212.55 214.167Z" fill="#FF2323" stroke="white" stroke-width="3" stroke-linecap="round"/>
<path d="M302.038 267.248C302.038 261.691 302.5 232.5 299.391 231.254C296.283 230.009 294.925 229.691 293.039 232.049C291.807 233.589 289.788 235.963 289.364 237.871C288.898 239.966 288.598 243.556 287.335 245.135C287.113 245.411 286.688 248.074 286.688 248.458C286.688 249.479 286.454 251.497 286.041 252.427C283.276 258.648 282.905 266.411 281.953 273.071C281.32 277.504 280.336 282.379 280.336 286.833C280.336 291.286 278.905 295.537 278.748 299.949C278.577 304.745 276.996 309.423 276.101 314.123C275.04 319.695 273.392 325.584 271.073 330.737C269.579 334.056 267.623 337.201 266.309 340.559C265.355 342.996 263.461 346.976 261.692 348.881C258.23 352.61 255.028 357.314 252.282 361.585C248.897 366.851 243.938 370.74 240.313 375.759C238.664 378.043 235.971 380.763 233.756 382.523C232.049 383.878 230.961 385.843 229.256 387.169C223.891 391.342 218.554 395.43 213.759 400.225C212.503 401.481 217.813 400.112 218.641 399.284C220.427 397.498 224.396 395.964 226.874 395.079C230.198 393.892 232.31 392.026 234.814 389.521C235.674 388.661 237.02 386.898 237.99 386.316C239.29 385.536 239.347 383.81 240.637 383.052C241.512 382.537 243.164 380.421 243.695 379.464C244.585 377.862 246.516 376.894 247.489 375.436C249.724 372.083 252.78 368.379 255.693 365.467C261.776 359.384 265.354 351.033 271.22 344.941C274.935 341.083 278.881 335.724 281.424 331.061C283.507 327.242 286.417 323.805 288.511 319.916C289.744 317.625 290.813 313.764 291.451 311.211C292.099 308.621 293.378 306.247 293.98 303.654C295.294 298.004 297.558 292.524 298.45 286.833C299.507 280.096 302.038 274.165 302.038 267.248Z" fill="white" stroke="white" stroke-width="3" stroke-linecap="round"/>
</svg>
