<svg width="512" height="512" viewBox="0 0 512 512" fill="none" xmlns="http://www.w3.org/2000/svg">
<rect width="512" height="512" fill="white"/>
<path d="M245.017 67.8425C247.162 67.1172 249.53 67.5603 251.267 69.0122C255.656 72.6795 259.308 77.6093 262.121 81.4981L262.121 81.4984C275.614 100.153 284.037 122.41 287.978 145.253C288.505 148.305 288.755 151.678 288.978 154.686C289.041 155.527 289.101 156.339 289.164 157.108C289.289 158.621 289.429 160.019 289.605 161.311C289.638 161.286 289.67 161.26 289.703 161.234C291.737 159.625 293.685 157.67 294.704 156.506L294.704 156.506C297.288 153.551 298.113 151.391 298.463 149.179C298.799 147.059 298.738 144.912 298.644 141.615C298.615 140.592 298.583 139.457 298.558 138.178C298.503 135.337 300.301 132.79 302.996 131.889C305.692 130.988 308.66 131.942 310.325 134.245C319.924 147.525 324.263 165.798 325.832 183.759C327.414 201.879 326.245 220.539 324.146 235.314C323.924 236.883 323.418 239.371 322.899 241.925C322.616 243.317 322.33 244.728 322.083 246.02C323.862 243.787 325.624 241.103 327.326 238.154C331.34 231.195 334.659 223.391 336.89 217.951C337.959 215.345 340.585 213.724 343.394 213.936C346.203 214.149 348.555 216.146 349.22 218.883C353.847 237.926 353.664 256.373 351.455 275.188C351.231 277.099 350.551 280.934 349.822 285.044C349.494 286.889 349.157 288.791 348.847 290.598C348.57 292.214 348.308 293.785 348.079 295.242C351.016 292.593 353.768 288.885 356.21 284.439C359.478 278.487 361.889 271.76 363.35 265.892C364.021 263.195 366.333 261.224 369.102 260.986C371.871 260.749 374.484 262.298 375.605 264.841C377.143 268.329 378.572 271.967 379.511 276.155L379.511 276.155C384.821 299.859 379.04 326.386 367.695 346.418C350.254 377.215 320.392 395.507 289.273 403.655C263.942 410.516 234.607 410.192 209.425 402.032L211.429 395.848L209.425 402.032C178.497 392.008 149.775 370.873 134.079 339.12C122.281 315.251 120.111 287.109 124.814 261.381L131.208 262.55L124.814 261.381C126.223 253.676 128.345 246.191 130.366 239.062C130.5 238.589 130.633 238.119 130.766 237.649C131.639 234.566 134.628 232.578 137.809 232.967C140.99 233.356 143.412 236.005 143.517 239.207C143.869 249.994 144.894 258.735 150.236 265.032L150.236 265.033C151.102 266.053 151.805 266.75 152.399 267.173C152.611 267.324 152.754 267.401 152.834 267.438C152.862 267.43 152.901 267.418 152.95 267.398C153.108 267.335 153.385 267.193 153.774 266.889C154.59 266.25 155.626 265.111 156.806 263.305C159.174 259.678 161.438 254.435 163.501 248.413C166.8 238.787 169.213 228.35 170.804 221.472C171.2 219.759 171.545 218.267 171.84 217.063L171.84 217.062C173.558 210.052 175.46 202.779 177.81 195.746L177.811 195.745C181.436 184.9 187.294 171.626 195.542 162.598C197.075 160.92 199.372 160.165 201.601 160.605C203.831 161.046 205.668 162.619 206.447 164.753C209.276 172.504 209.807 181.459 210.242 188.805C210.254 189.007 210.266 189.208 210.278 189.408C210.51 193.316 210.724 196.768 211.156 199.828C211.593 202.918 212.194 205.115 212.952 206.614C213.101 206.908 213.226 207.113 213.324 207.254C213.333 207.267 213.341 207.279 213.349 207.29C213.529 207.28 213.841 207.234 214.315 207.074C215.151 206.792 216.121 206.278 217.104 205.609L245.017 67.8425ZM245.017 67.8425C242.872 68.5678 241.259 70.357 240.759 72.5653M245.017 67.8425L240.759 72.5653M240.759 72.5653C239.709 77.2068 238.842 81.8877 238.158 86.6075L238.158 86.6083C237.475 91.3279 236.977 96.0701 236.664 100.834L236.661 100.89M240.759 72.5653L236.661 100.89M236.661 100.89C236.332 106.662 236.255 113.628 236.173 121.05M236.661 100.89L236.173 121.05M236.173 121.05C236.146 123.471 236.119 125.941 236.082 128.433M236.173 121.05L236.082 128.433M236.082 128.433C235.931 138.703 235.621 149.603 234.579 160.061M236.082 128.433L234.579 160.061M234.579 160.061C233.533 170.554 231.776 180.315 228.855 188.374M234.579 160.061L228.855 188.374M228.855 188.374C225.922 196.468 222.029 202.256 217.105 205.609L228.855 188.374ZM152.901 267.465C152.91 267.467 152.915 267.468 152.915 267.469C152.915 267.469 152.91 267.468 152.901 267.465Z" fill="#DD391C" stroke="black" stroke-width="13" stroke-linejoin="round"/>
<path d="M241.93 191C243.861 192.614 245.55 194.863 247.046 196.93C253.766 206.221 258.014 217.385 260.008 228.944C260.646 232.644 260.398 237.136 261.592 240.611C262.064 241.076 262.167 241.217 262.846 241.213C264.777 241.202 268.15 238.006 269.459 236.509C272.937 232.534 272.42 229.652 272.323 224.589C281.324 237.041 281.105 260 278.958 275.112C278.569 277.855 276.745 284.604 277.409 286.931C277.536 287.376 277.665 287.341 278.016 287.557C278.453 287.526 278.834 287.49 279.246 287.313C284.919 284.877 289.816 273.517 292.169 267.78C294.467 277.237 294.399 286.472 293.268 296.104C292.955 298.771 290.731 309.529 291.082 311.039C291.4 311.341 291.69 311.534 292.091 311.674C293.106 312.03 294.047 311.756 294.955 311.206C300.756 307.697 304.552 299.065 306.198 292.45C306.967 294.194 307.617 295.87 308.039 297.753C310.606 309.212 307.817 322.262 302.204 332.173C293.616 347.338 278.836 356.475 263.168 360.574C250.489 364.011 235.776 363.841 223.225 359.774C207.72 354.749 193.473 344.203 185.719 328.516C179.921 316.785 178.795 302.799 181.158 289.874C181.911 285.758 183.072 281.751 184.206 277.744C184.388 283.321 184.879 289.069 188.537 293.38C189.561 294.588 190.879 295.867 192.487 295.853C199.783 295.786 204.307 272.827 205.775 266.832C206.67 263.181 207.641 259.476 208.828 255.923C210.682 250.378 213.571 243.961 217.411 239.759C220.051 246.993 218.401 256.983 220.983 262.082C221.517 263.134 222.214 263.935 223.326 264.206C224.955 264.603 226.767 263.752 228.119 262.832C241.725 253.569 238.965 220.968 239.859 205.295C240.017 202.885 240.269 200.487 240.615 198.1C240.961 195.713 241.399 193.347 241.93 191Z" fill="#F5CF37"/>
<path d="M285.834 78.8939C283.746 77.2243 282.823 75.2673 280.276 74.13C278.703 74.13 275.249 73.5692 274.041 74.777C272.871 75.9477 272.285 79.0659 271.689 80.4819C270.739 82.738 269.345 85.6031 269.16 88.01C268.929 91.0113 267.043 93.8792 267.043 96.9202C267.043 100.264 265.369 103.665 264.955 106.977C264.479 110.784 264.998 114.928 263.573 118.593C260.748 125.856 259.257 133.024 253.692 138.589C252.301 139.98 248.657 140.577 246.811 141.236C243.195 142.527 239.983 144.271 236.46 145.706C234.281 146.593 232.553 148.576 230.52 149.705C228.395 150.885 225.275 151.888 223.668 153.763C222.511 155.113 219.163 156.637 217.522 157.233C216.184 157.72 212.176 161.066 211.993 162.526C211.903 163.249 210.955 163.692 210.523 164.232C210.08 164.786 210.405 166.594 210.405 167.29V173.378C210.405 177.218 214.543 180.138 216.757 182.905C219.541 186.385 221.488 188.463 226.285 188.463C231.179 188.463 234.963 187.24 237.518 182.641C239.682 178.746 242.436 175.079 246.135 172.613C248.273 171.188 250.654 169.901 251.957 167.555C252.861 165.928 253.28 170.248 253.28 171.26C253.28 177.781 254.53 184.156 254.868 190.58C255.128 195.506 258.109 199.056 261.485 202.431C263.618 204.565 269.218 211.139 272.865 209.518C274.754 208.679 276.236 208.617 277.747 207.107C279.401 205.453 281.072 203.192 282.393 201.284C284.026 198.926 285.812 196.395 287.804 194.403C289.029 193.178 290.953 191.452 291.421 189.816C291.852 188.307 294.84 186.132 295.949 185.023C297.964 183.008 299.401 179.943 301.213 177.612C301.913 176.712 302.404 175.571 303.301 176.289C304.053 176.89 304.922 177.197 305.183 178.112C305.311 178.561 307.139 179.907 307.536 180.523C308.275 181.673 309.168 182.67 309.918 183.817C311.474 186.197 314.895 189.859 315.211 192.698C315.499 195.294 319.691 194.286 321.563 194.286C323.52 194.286 325.397 194.676 326.444 192.698C327.416 190.862 328.511 188.718 329.738 187.14C330.689 185.917 330.032 182.315 330.032 180.788C330.032 178.055 329.725 175.605 328.855 172.995C326.97 167.338 324.682 161.722 320.769 156.939C320.026 156.031 319.135 154.38 318.887 153.263C318.648 152.189 317.308 152.312 316.799 151.675C316.333 151.093 314.393 150.362 313.623 150.087C312.572 149.712 311.762 148.498 310.712 148.264C307.579 147.568 301.491 144.151 299.743 141.354C298.837 139.905 295.746 139.346 294.685 137.648C293.709 136.087 291.776 134.622 290.45 133.296C288.326 131.172 284.674 128.197 284.01 125.209C283.762 124.093 282.922 123.926 282.922 122.563V119.387C282.922 117.773 282.89 113.855 284.246 112.77C285.025 112.147 286.098 107.263 286.098 106.154V100.067C286.098 94.9579 286.628 90.089 286.628 84.9517C286.628 83.3486 287.207 79.9927 285.834 78.8939Z" fill="#75FF53" stroke="#75FF53" stroke-width="3" stroke-linecap="round"/>
<path d="M243.606 190.581V184.904L239.419 188.736C234.858 192.909 230.732 196.572 225.535 198.882C225.07 199.089 224.608 199.349 224.22 199.576C224.049 199.676 223.896 199.766 223.751 199.852C223.526 199.986 223.318 200.109 223.085 200.241C222.727 200.443 222.438 200.591 222.199 200.688C221.987 200.775 221.895 200.788 221.895 200.789C221.895 200.789 221.898 200.789 221.904 200.789C220.595 200.866 219.294 201.416 218.299 202.255C217.293 203.104 216.375 204.457 216.375 206.196C216.375 206.911 216.14 207.721 215.729 208.985C215.711 209.041 215.692 209.099 215.673 209.158C215.316 210.25 214.832 211.731 214.788 213.27C214.62 219.148 214.89 224.986 215.196 230.734C215.229 231.343 215.261 231.951 215.294 232.557C215.572 237.707 215.846 242.779 215.846 247.865C215.846 252.357 216.44 258.975 217.057 265.85C217.218 267.648 217.381 269.464 217.535 271.263C218.287 280.034 218.827 288.366 218.218 293.315C217.908 294.416 217.113 297.541 216.171 301.245C215.746 302.916 215.291 304.705 214.838 306.478C214.064 309.504 213.285 312.517 212.643 314.911C211.974 317.408 211.513 318.999 211.359 319.375C210.068 322.531 208.478 327.815 206.856 333.201C206.592 334.079 206.327 334.96 206.062 335.835C204.12 342.251 202.207 348.304 200.642 351.434C199.063 354.593 196.912 357.533 194.548 360.528C193.96 361.273 193.354 362.027 192.742 362.789C190.943 365.027 189.087 367.336 187.467 369.692C180.894 379.253 173.5 392.432 173.5 405.22C173.5 407.198 174.736 408.723 175.826 409.714C176.99 410.771 178.482 411.673 179.956 412.395C181.45 413.127 183.04 413.731 184.479 414.156C185.866 414.565 187.304 414.866 188.439 414.866C191.37 414.866 194.25 414.589 196.981 414.326L196.997 414.325C199.772 414.058 202.392 413.807 204.995 413.807C207.171 413.807 209.31 413.126 211.139 412.386C212.214 411.951 213.419 411.387 214.477 410.892C215.103 410.599 215.677 410.331 216.142 410.127C220.532 408.207 224.823 405.649 228.755 403.272C231.195 401.796 233.364 399.974 235.374 398.267L235.658 398.025C237.606 396.369 239.413 394.833 241.381 393.554C246.409 390.285 251.023 385.87 255.048 381.845C263.469 373.425 272.102 365.669 281.426 358.21C282.758 357.144 284.128 356.153 285.556 355.12C286.153 354.688 286.76 354.249 287.379 353.794C289.427 352.288 291.528 350.658 293.424 348.762C297.279 344.908 300.982 340.898 304.442 336.668C312.301 327.063 319.799 314.779 322.9 302.373C323.439 300.22 324.168 298.108 324.942 295.868C325.054 295.545 325.167 295.219 325.28 294.89C326.16 292.329 327.057 289.605 327.606 286.74C328.107 284.124 328.935 281.567 329.849 278.889C329.963 278.553 330.08 278.215 330.197 277.874C330.996 275.546 331.835 273.105 332.457 270.614C332.865 268.984 333.327 267.392 333.804 265.75C333.917 265.358 334.032 264.963 334.147 264.564C334.736 262.52 335.323 260.398 335.775 258.188C335.982 257.176 336.253 256.273 336.554 255.268C336.689 254.819 336.83 254.35 336.974 253.842C337.414 252.286 337.825 250.53 337.825 248.541C337.825 246.225 337.953 243.889 338.086 241.456L338.086 241.445C338.218 239.031 338.355 236.524 338.355 233.985C338.355 232.602 338.233 231.266 338.112 230.047C338.096 229.882 338.079 229.721 338.063 229.561C337.956 228.503 337.86 227.547 337.823 226.596C337.774 225.299 337.45 224.135 337.212 223.275C337.2 223.231 337.188 223.188 337.176 223.146C336.911 222.188 336.767 221.595 336.767 221.016C336.767 218.593 336.146 215.614 335.333 212.905C334.514 210.177 333.425 207.473 332.344 205.581C331.966 204.92 331.418 204.483 331.038 204.221C330.622 203.934 330.162 203.692 329.728 203.488C328.863 203.083 327.835 202.708 326.91 202.38C326.721 202.313 326.536 202.248 326.356 202.185C325.604 201.92 324.927 201.681 324.343 201.446C323.987 201.302 323.72 201.181 323.532 201.081C323.451 201.038 323.402 201.008 323.379 200.993C323.131 200.757 322.817 200.527 322.591 200.365C322.296 200.152 321.935 199.906 321.54 199.645C320.749 199.121 319.767 198.5 318.786 197.898C317.805 197.297 316.805 196.703 315.977 196.236C315.565 196.004 315.178 195.793 314.849 195.626C314.634 195.517 314.315 195.359 313.993 195.244C309.471 193.309 304.184 195.345 301.296 198.554C301.104 198.767 300.877 198.948 300.433 199.302L300.347 199.372C299.907 199.723 299.268 200.24 298.711 200.955C298.711 200.955 298.711 200.955 298.71 200.956C298.7 200.967 298.639 201.034 298.476 201.173C298.349 201.28 298.234 201.373 298.09 201.488C298.006 201.555 297.912 201.63 297.801 201.72C297.545 201.927 297.212 202.205 296.906 202.522C296.627 202.811 296.247 203.257 295.99 203.853C295.967 203.876 295.927 203.916 295.86 203.972C295.649 204.15 295.352 204.347 294.898 204.63C294.844 204.663 294.787 204.698 294.728 204.735C294.347 204.971 293.864 205.27 293.429 205.589C292.927 205.957 292.296 206.487 291.822 207.219L293.921 208.577L291.822 207.219C291.506 207.707 290.895 208.145 289.645 208.97C289.61 208.993 289.574 209.017 289.537 209.041C288.526 209.707 286.958 210.74 286.045 212.336C285.906 212.58 285.568 212.98 284.983 213.531C284.617 213.875 284.293 214.157 283.956 214.45C283.732 214.644 283.502 214.844 283.25 215.071C282.005 216.191 280.803 217.234 279.508 218.27C279.166 218.544 278.689 218.799 277.96 219.189C277.814 219.267 277.658 219.35 277.491 219.44C276.821 219.801 275.76 220.373 274.956 221.193C274.773 221.233 274.497 221.275 274.112 221.308C273.154 221.389 271.881 221.381 270.487 221.323C269.111 221.265 267.702 221.163 266.49 221.072C266.389 221.064 266.289 221.057 266.189 221.049C265.158 220.972 264.184 220.898 263.632 220.898C262.186 220.898 260.138 220.409 257.976 219.534C255.84 218.668 253.847 217.527 252.511 216.435C250.817 215.049 248.68 212.507 247.671 210.589C247.179 209.655 246.407 208.653 245.795 207.858C245.641 207.657 245.496 207.469 245.369 207.3C244.59 206.259 244.21 205.594 244.106 205.124C243.872 204.073 243.432 203.114 243.132 202.459C243.079 202.343 243.03 202.237 242.987 202.142C242.66 201.405 242.548 201.013 242.548 200.638C242.548 199.79 242.777 198.023 243.055 195.94L243.08 195.751C243.326 193.907 243.606 191.808 243.606 190.581ZM275.173 221.131C275.174 221.131 275.16 221.138 275.127 221.148C275.155 221.135 275.171 221.13 275.173 221.131Z" fill="#FF2323" stroke="white" stroke-width="5" stroke-linecap="round"/>
<path d="M316.038 254.248C316.038 248.691 316.5 219.5 313.391 218.254C310.283 217.009 308.925 216.691 307.039 219.049C305.807 220.589 303.788 222.963 303.364 224.871C302.898 226.966 302.598 230.556 301.335 232.135C301.113 232.411 300.688 235.074 300.688 235.458C300.688 236.479 300.454 238.497 300.041 239.427C297.276 245.648 296.905 253.411 295.953 260.071C295.32 264.504 294.336 269.379 294.336 273.833C294.336 278.286 292.905 282.537 292.748 286.949C292.577 291.745 290.996 296.423 290.101 301.123C289.04 306.695 287.392 312.584 285.073 317.737C283.579 321.056 281.623 324.201 280.309 327.559C279.355 329.996 277.461 333.976 275.692 335.881C272.23 339.61 269.028 344.314 266.282 348.585C262.897 353.851 257.938 357.74 254.313 362.759C252.664 365.043 249.971 367.763 247.756 369.523C246.049 370.878 244.961 372.843 243.256 374.169C237.891 378.342 232.554 382.43 227.759 387.225C226.503 388.481 231.813 387.112 232.641 386.284C234.427 384.498 238.396 382.964 240.874 382.079C244.198 380.892 246.31 379.026 248.814 376.521C249.674 375.661 251.02 373.898 251.99 373.316C253.29 372.536 253.347 370.81 254.637 370.052C255.512 369.537 257.164 367.421 257.695 366.464C258.585 364.862 260.516 363.894 261.489 362.436C263.724 359.083 266.78 355.379 269.693 352.467C275.776 346.384 279.354 338.033 285.22 331.941C288.935 328.083 292.881 322.724 295.424 318.061C297.507 314.242 300.417 310.805 302.511 306.916C303.744 304.625 304.813 300.764 305.451 298.211C306.099 295.621 307.378 293.247 307.98 290.654C309.294 285.004 311.558 279.524 312.45 273.833C313.507 267.096 316.038 261.165 316.038 254.248Z" fill="white" stroke="white" stroke-width="3" stroke-linecap="round"/>
</svg>
