<svg width="512" height="512" viewBox="0 0 512 512" fill="none" xmlns="http://www.w3.org/2000/svg">
<g clip-path="url(#clip0_196_205)">
<rect width="512" height="512" fill="white"/>
<path d="M240.157 306.042C241.525 305.949 242.756 305.986 244.075 306.414C245.104 306.748 245.507 307.113 246 308.095C245.999 309.154 245.795 309.889 245.261 310.801C243.118 314.46 239.192 315.968 235.413 316.93C233.787 317.008 231.645 317.194 230.193 316.282C229.564 315.887 229.098 315.332 229.011 314.543C228.91 313.621 229.523 312.526 230.019 311.801C232.342 308.403 236.376 306.777 240.157 306.042Z" fill="black"/>
<path d="M240.075 309.063C240.378 309.04 240.682 309.011 240.987 309.003C241.834 308.98 242.385 309.093 243 309.622L242.862 310.272C241.013 312.383 238.065 313.376 235.265 313.968C234.841 313.983 234.415 314.001 233.99 314C233.143 313.998 232.617 313.94 232 313.382L232.182 312.756C234.145 310.845 237.346 309.725 240.075 309.063Z" fill="#E5F3A1"/>
<path d="M144.58 316.001C146.401 315.98 147.544 316.525 149 317.832L148.965 318.223L148.388 318.372C147.425 318.663 146.333 319.054 145.332 318.994C144.648 318.953 144.427 318.78 144.002 318.156C143.976 317.192 144.195 316.804 144.58 316.001Z" fill="#EBECCE"/>
<path d="M246.878 340.835C246.02 342.109 245.332 343.37 245.627 344.902C248.991 345.101 252.468 344.464 255.893 344.586C263.057 344.838 270.2 345.369 277.323 346.179C284.445 346.989 291.525 348.075 298.562 349.437C315.167 352.701 343.842 359.103 353.467 374.271C356.111 378.437 356.283 381.985 355.334 386.706C351.709 389.269 348.465 390.204 344.18 391.136C343.544 391.274 343.36 391.619 342.901 392.066L342.983 393.317C356.116 398.899 373.008 405.776 378.549 420.13C380.516 425.228 380.571 430.534 378.149 435.49C376.375 439.12 373.494 442.394 370.422 444.992L369.934 445.405C363.138 451.062 354.799 454.133 346.12 455.422C343.542 455.804 339.629 455.584 338.183 457.788C338.772 458.893 338.795 458.842 339.958 459.157C343.871 460.214 352.025 457.353 354.597 460.942C355.487 462.184 355.222 463.798 354.815 465.16C352.438 473.111 344.425 479.456 337.246 483.06C331.741 485.825 325.681 487.744 319.767 489.432C317.164 490.174 314.223 490.74 311.739 491.784C310.828 492.166 310.761 492.178 310.265 493.081C312.64 494.846 317.615 494.879 320.578 495.677C300.301 511.023 272.257 518.136 247.341 520.222C242.395 520.636 237.457 520.238 232.525 520.592C221.057 521.414 209.581 522.948 198.095 521.396C186.999 519.896 176.65 516.416 166.067 512.966C158.061 510.356 149.952 507.885 142.05 504.975C131.959 501.259 122.048 496.922 112.069 492.908C101.722 488.746 90.9959 485.542 80.4803 481.833C60.7228 474.862 40.5543 467.029 19.8634 463.294C4.94176 460.6 -15.2355 486.566 -45.4141 479.905C-46.7787 475.656 -46.8835 471.72 -44.7522 467.674C-41.1146 460.768 -25.1495 454.43 -25.9235 450.63C-28.2606 449.395 -33.915 450.493 -36.7409 450.435C-45.1115 450.26 -59.0646 447.926 -62.1683 438.664C-62.6978 437.082 -62.6066 435.452 -61.7539 433.999C-60.1315 431.231 -56.9804 429.846 -53.9888 429.177C-49.3566 428.14 -38.4502 429.334 -35.6063 427.058C-35.5742 426.131 -35.3744 426.239 -35.959 425.663C-37.8535 423.796 -41.7972 423.343 -44.3585 422.702C-54.6651 420.125 -67.7036 416.198 -68.4375 403.577C-68.5443 401.723 -68.1984 399.936 -67.8327 398.13L-67.2563 397.743C-61.6871 394.066 -55.6243 394.095 -49.3066 395.407C-42.9508 396.727 -25.5163 405.08 -21.0758 404.416C-20.7499 403.575 -20.5818 403.726 -20.9809 403.03C-22.5596 400.268 -28.4214 398.042 -31.2506 396.41C-40.9177 390.837 -49.4721 381.102 -49.7451 369.469C-49.1167 367.16 -48.0482 365.128 -46.9878 362.997C-45.7067 362.543 -44.3981 362.067 -43.0618 361.802C-31.2951 359.47 -7.33793 382.813 3.27834 389.264C3.42643 389.353 3.57664 389.44 3.72614 389.528C11.4912 388.788 19.7439 384.9 26.9535 382.012C49.9635 372.797 72.0302 361.531 95.2766 352.797C101.39 350.499 108.058 347.608 114.456 346.303C113.591 347.299 112.891 347.892 112.596 349.213C115.787 350.185 126.091 343.979 129.455 342.545C139.787 338.138 171.235 324.444 181.6 328.607L181.848 329.382C179.506 332.737 175.71 332.843 172.902 335.249C172.131 335.909 172.362 335.546 172.255 336.61C172.624 336.878 172.919 337.308 173.363 337.413C175.744 337.978 182.458 335.846 185.071 335.332C198.791 332.639 232.544 325.519 244.071 332.093C246.429 333.439 247.953 335.311 248.614 337.939C248.247 339.429 247.942 339.696 246.878 340.835Z" fill="#E06F05"/>
<path d="M3.72604 389.528C11.4911 388.788 19.7438 384.9 26.9534 382.013C49.9634 372.797 72.0301 361.531 95.2765 352.797C101.39 350.5 108.058 347.609 114.456 346.304C113.591 347.299 112.891 347.892 112.596 349.214C115.787 350.185 126.091 343.979 129.455 342.545C139.786 338.139 171.235 324.445 181.6 328.607L181.848 329.382C179.506 332.737 175.71 332.843 172.902 335.249C172.131 335.909 172.362 335.546 172.255 336.611C172.624 336.879 172.919 337.308 173.363 337.414C175.744 337.979 182.458 335.846 185.071 335.332C198.791 332.639 232.544 325.519 244.071 332.093C246.429 333.439 247.953 335.311 248.614 337.939C248.247 339.43 247.942 339.697 246.878 340.835C238.742 340.239 230.444 340.894 222.278 340.703C205.18 340.3 187.68 339.255 170.613 340.918C156.741 342.27 143.209 346.085 129.757 349.525C123.386 351.154 116.95 352.388 110.632 354.247C100.657 357.181 90.7284 361.19 81.1106 365.16C69.808 369.826 11.5227 396.286 3.1065 395.621C0.38196 395.406 -3.44217 392.729 -5.75206 391.369C-19.9685 383.004 -36.0485 378.645 -49.7452 369.47C-49.1168 367.161 -48.0483 365.128 -46.9879 362.998C-45.7068 362.544 -44.3982 362.067 -43.0619 361.802C-31.2952 359.47 -7.33804 382.814 3.27824 389.264C3.42633 389.353 3.57654 389.44 3.72604 389.528Z" fill="#F38A0C"/>
<path d="M342.982 393.317C356.115 398.899 373.008 405.776 378.548 420.13C380.515 425.228 380.57 430.534 378.149 435.49C376.375 439.12 373.494 442.394 370.422 444.992C370.038 444.474 369.916 444.011 370.017 443.335C370.629 439.25 372.855 435.896 373.013 431.457C373.111 428.67 372.594 425.883 371.343 423.377C368.176 417.034 357.444 407.831 351.623 403.973C348.086 401.629 343.613 400.118 340.644 397.039C340.818 395.715 342.159 394.399 342.982 393.317Z" fill="#F38A0C"/>
<path d="M134.686 394.046L135.245 394.989C134.57 398.078 117.628 398.739 114.253 403.653C113.848 404.242 114.036 404.579 114.107 405.236C118.348 410.768 128.386 408.295 134.445 410.441C135.514 410.819 136.024 411.102 136.476 412.171C135.445 412.934 134.722 412.755 133.478 412.815C131.082 412.925 128.684 412.962 126.285 412.927C121.582 412.838 115.068 412.285 111.755 408.555C110.63 407.289 110.105 405.846 110.222 404.142C110.361 402.12 111.926 400.227 113.436 399.013C118.956 394.578 127.834 393.444 134.686 394.046Z" fill="black"/>
<path d="M339.584 425.003L339.62 425.774C339.131 426.639 339.017 426.838 338.037 427.209C332.043 429.479 325.548 429.387 319.435 432.05C324.662 434.055 340.909 437.595 344.081 440.389C344.079 441.003 344.11 441.092 343.936 441.77C343.353 444.041 341.502 445.785 339.494 446.798C338.103 446.741 338.139 446.607 337.111 445.634C337.687 444.198 338.553 442.821 339.302 441.463C338.953 439.526 319.473 437.68 315.96 433.776C315.102 432.822 315.065 432.505 315.052 431.312C315.36 430.669 315.671 430.145 316.208 429.662C321.623 424.796 332.676 424.42 339.584 425.003Z" fill="black"/>
<path d="M232.572 357.283L232.848 358.64C230.401 363.205 219.695 360.451 216.516 364.923C216.984 373.041 235.943 368.981 239.716 372.794L239.588 373.492C238.293 374.944 238.062 374.942 236.264 375.397C229.809 375.219 221.613 374.52 216.23 370.57C214.492 369.293 212.741 367.406 212.558 365.148C212.451 363.829 213.006 362.638 213.884 361.688C217.743 357.522 227.25 357.304 232.572 357.283Z" fill="black"/>
<path d="M47.8182 413.285C48.4109 414.136 48.4985 414.519 48.4865 415.553C46.1174 418.929 35.0405 418.742 30.9344 421.82C29.6571 422.777 29.3309 423.728 29.1085 425.251C32.0586 432.624 47.0902 426.649 51.1638 430.288L50.905 431.328L49.4138 431.971C43.4586 432.8 35.2377 434.235 29.678 431.251C27.9955 430.346 26.6073 428.893 26.0995 427.019C25.4814 424.739 25.7571 422.7 26.9954 420.693C30.4219 415.135 41.967 414.749 47.8182 413.285Z" fill="black"/>
<path d="M251.092 465.225C251.538 465.995 251.358 465.543 251.529 466.617C249.491 468.903 243.432 470.181 240.56 471.517C238.534 472.46 236.507 473.466 235.725 475.65L236.179 476.605C242.558 480.994 249.073 477.877 256.03 478.757L256.427 479.445C255.457 480.864 253.974 481.273 252.449 481.904C247.381 483.456 240.334 483.8 235.612 481.137C233.882 480.161 232.362 478.665 231.93 476.665C231.595 475.115 232.04 473.538 232.953 472.275C236.519 467.332 245.43 465.944 251.092 465.225Z" fill="black"/>
<path d="M-168.779 469.468C-148.246 459.622 -135.22 439.574 -127.771 418.754C-125.123 411.356 -123.455 403.568 -120.291 396.362C-119.944 395.572 -119.578 394.792 -119.192 394.022C-118.806 393.251 -118.402 392.49 -117.978 391.739C-117.554 390.989 -117.112 390.249 -116.651 389.52C-116.19 388.791 -115.711 388.074 -115.214 387.37C-114.718 386.665 -114.204 385.972 -113.674 385.293C-113.142 384.614 -112.595 383.949 -112.031 383.297C-111.466 382.645 -110.886 382.008 -110.29 381.385C-109.694 380.762 -109.083 380.155 -108.456 379.562C-107.83 378.97 -107.189 378.394 -106.534 377.833C-105.879 377.273 -105.21 376.729 -104.528 376.202C-103.846 375.675 -103.151 375.165 -102.443 374.673C-101.735 374.181 -101.016 373.706 -100.284 373.25C-99.553 372.793 -98.8106 372.355 -98.0574 371.935C-97.3041 371.517 -96.5408 371.117 -95.7676 370.735C-94.9944 370.354 -94.2122 369.992 -93.4209 369.65C-92.6297 369.307 -91.8304 368.985 -91.023 368.682C-78.9707 364.061 -65.4707 362.996 -53.5797 368.359C-53.809 373.198 -52.6266 377.33 -50.7178 381.695C-48.0926 386.512 -45.1805 389.841 -41.2632 393.682C-49.0008 391.542 -58.9702 388.313 -66.558 392.468C-69.2964 393.968 -71.4366 396.474 -72.2251 399.52C-73.3834 403.995 -71.5431 409.012 -69.1083 412.742C-64.8331 419.292 -57.9421 421.8 -50.9597 424.367C-56.1332 425.307 -61.3777 426.772 -64.4757 431.419C-66.0957 433.849 -66.6923 436.79 -65.9364 439.631C-64.6755 444.372 -60.2248 447.675 -56.0595 449.823C-49.7408 453.082 -42.5314 453.633 -35.5738 454.339C-41.8662 458.458 -48.1361 462.561 -49.8277 470.456C-50.4011 473.136 -50.4114 475.89 -50.0202 478.595C-69.3681 474.727 -90.4683 471.66 -105.356 457.619C-100.76 456.226 -82.2474 452.879 -79.7964 450.893L-79.622 449.981C-81.125 448.67 -83.0573 448.719 -84.9576 448.839C-106.257 450.187 -143.534 467.925 -157.084 484.114C-166.264 495.081 -177.9 512.296 -176.529 527.375C-176.005 533.143 -174.173 538.213 -176.106 543.894C-176.416 544.806 -176.684 545.735 -176.974 546.653C-176.378 547.751 -176.31 547.694 -175.135 548.161C-173.763 547.828 -173.362 547.814 -172.537 546.556C-169.058 541.247 -173.158 526.793 -171.966 519.723C-170.885 513.302 -167.995 508.562 -165.261 502.802C-126.374 547.181 -103.408 577.658 -96.8867 637.882C-132.791 641.434 -180.15 606.496 -206.823 584.59C-223.447 570.937 -238.899 555.322 -253.112 539.181C-274.342 515.068 -312.557 465.13 -315.591 432.484C-315.849 429.71 -315.857 426.885 -315.823 424.1C-310.003 422.93 -304.4 421.816 -298.425 422.102C-271.706 423.386 -237.757 442.325 -215.851 456.916C-207.977 462.235 -200.585 468.155 -193.676 474.677C-206.404 478.296 -221.093 482.733 -234.333 479.254C-238.77 474.245 -242.637 469.759 -249.802 469.195L-250.311 469.671C-247.043 474.71 -239.603 474.824 -239.282 481.283C-239.257 481.783 -239.215 482.283 -239.183 482.783C-237.668 483.809 -235.757 483.811 -233.98 483.998C-210.63 486.291 -189.825 478.521 -168.779 469.468Z" fill="#F82317"/>
<path d="M459.929 67.377C462.174 67.3361 464.418 67.3866 466.66 67.5283C468.902 67.67 471.134 67.9026 473.356 68.2259C475.579 68.5487 477.785 68.961 479.974 69.4629C482.163 69.9654 484.328 70.5556 486.469 71.2337C502.859 76.5032 517.908 85.8782 533.272 93.5148L554.235 103.82C558.77 106.031 563.491 108.086 567.788 110.736C570.989 118.075 572.861 126.636 574.841 134.38C575.492 136.911 576.111 139.45 576.7 141.996C577.289 144.542 577.847 147.095 578.375 149.655C578.901 152.214 579.397 154.78 579.861 157.352C580.326 159.924 580.759 162.5 581.161 165.082C581.563 167.665 581.933 170.252 582.272 172.843C582.612 175.434 582.919 178.029 583.195 180.627C583.471 183.226 583.716 185.828 583.928 188.432C584.141 191.037 584.322 193.644 584.472 196.253C584.621 198.861 584.739 201.471 584.825 204.083C584.911 206.695 584.965 209.308 584.988 211.921C585.01 214.534 585.001 217.147 584.96 219.76C584.919 222.373 584.847 224.985 584.742 227.596C584.638 230.207 584.501 232.816 584.333 235.424C584.166 238.032 583.966 240.637 583.735 243.24C583.504 245.844 583.241 248.443 582.947 251.04C582.652 253.636 582.327 256.229 581.969 258.818C568.871 251.939 555.737 244.994 542.839 237.746C522.833 226.501 505.11 214.315 482.982 207.072C478.49 205.603 473.165 203.922 468.375 204.309C460.346 204.96 454 204.309 446.5 210C445.577 213.833 436.206 216.671 433.5 219.76C431.427 222.127 429.068 223.371 426 223.5C421.248 223.699 419.471 221.822 416 218.5C409.724 212.493 415.868 214.386 417 207.072C417.49 203.906 427.642 205.098 427.543 201.902C435.399 199.884 443.24 197.809 451.066 195.677C462.124 192.849 473.067 189.637 484.105 186.754C492.14 184.655 500.876 183.163 508.501 179.857C516.895 176.216 523.83 169.486 527.178 160.923C533.073 145.852 527.937 124.986 521.67 110.846C517.402 101.214 510.233 90.1726 499.874 86.3587C497.126 85.3475 494.129 85.3467 491.254 85.6988C483.941 86.5942 476.512 89.2669 469.462 91.3418C458.072 94.6944 445.83 97.8086 435.1 102.915C418.773 110.684 407.369 127.602 406.031 145.65C405.591 151.575 406.751 157.833 404.628 163.523C402.678 168.749 399.194 170.761 394.383 172.956C397.413 169.011 399.359 163.224 398.912 158.228C398.63 155.074 397.203 152.079 394.657 150.131C392.864 148.76 390.709 148.151 388.472 148.553C384.844 149.204 382.571 151.771 380.488 154.557C379.755 149.615 379.137 144.626 378.922 139.632C378.737 135.338 378.72 130.863 379.534 126.625C381.841 114.591 390.291 102.315 398.505 93.5067C414.6 76.2493 436.751 68.276 459.929 67.377Z" fill="#00E600"/>
<path d="M314.755 128.728C315.482 129.406 314.346 133.118 317.243 136.202C321.565 140.805 328.571 141.234 334.471 141.281C335.755 143.162 336.95 145.098 338.056 147.089C349.616 167.793 355.706 197.238 349.091 220.104C348.48 220.303 347.875 220.493 347.258 220.666C328.604 225.879 316.345 225.342 299.76 214.835C295.603 212.201 291.787 208.945 287.495 206.549C287.37 206.48 287.245 206.412 287.119 206.344C282.904 207.639 278.78 209.244 274.562 210.542C266.458 213.037 258.189 215.15 249.984 217.28L214.873 226.909C214.857 214.076 212.494 200.48 203.318 190.76C212.111 187.908 221.201 185.65 230.109 183.167L278.344 169.78C279.498 166.389 280.707 163.023 282.141 159.737C288.8 144.483 299.36 134.834 314.755 128.728Z" fill="#931F02"/>
<path d="M493.03 88.2751C495.881 88.008 498.598 88.8919 501.066 90.2815C511.997 96.4333 518.96 111.005 522.309 122.496C525.949 134.987 528.727 150.886 521.975 162.839C513.898 177.139 498.229 178.76 483.79 182.695C480.813 183.39 477.934 184.229 475.032 185.182C476.375 177.088 476.079 168.79 475.163 160.669C472.612 138.076 464.72 118.5 452.455 99.4612C466.123 96.5174 479.203 90.6276 493.03 88.2751Z" fill="#931F02"/>
<path d="M449.637 100.5C449.763 100.576 449.902 100.634 450.014 100.729C451.806 102.241 455.219 108.511 456.544 110.74C457.37 112.145 458.167 113.567 458.936 115.003C459.704 116.44 460.443 117.891 461.153 119.357C461.863 120.823 462.544 122.302 463.194 123.795C463.845 125.287 464.465 126.792 465.055 128.309C465.645 129.826 466.205 131.354 466.733 132.893C467.262 134.432 467.759 135.981 468.225 137.539C468.692 139.098 469.126 140.665 469.53 142.24C469.933 143.816 470.304 145.399 470.644 146.989C470.984 148.579 471.291 150.176 471.566 151.778C471.842 153.38 472.085 154.987 472.296 156.599C472.506 158.211 472.685 159.826 472.83 161.445C472.976 163.064 473.089 164.685 473.169 166.308C473.25 167.932 473.298 169.556 473.313 171.181C473.328 172.806 473.31 174.431 473.26 176.056C473.21 177.68 473.128 179.303 473.012 180.924C472.897 182.545 472.749 184.163 472.568 185.779C452.361 191.261 431.965 196.18 411.866 202.021C408.224 203.104 404.636 204.052 400.909 204.818C405.99 197.23 410.645 189.551 415.183 181.634C417.749 177.158 420.492 172.687 422.399 167.888C426.423 157.765 426.192 148.377 421.369 138.582C419.347 134.474 416.943 130.59 415.096 126.392C422.691 112.041 434.637 105.559 449.637 100.5Z" fill="#E5F3A1"/>
<path d="M411.845 60.2742C424.168 59.1892 439.241 61.4854 451.228 64.3305C426.675 67.5993 405.789 78.0911 390.59 97.9773C386.442 103.406 382.584 109.422 379.911 115.724C377.846 120.593 377.344 125.377 375.894 130.35C374.359 135.613 369.087 141.359 364.695 144.511C361.18 147.034 356.679 149.006 352.276 148.168C348.8 147.507 346.588 145.415 344.61 142.63C344.545 141.857 344.518 141.09 344.51 140.314C344.493 138.838 344.323 136.765 345.428 135.644C347.144 135.52 349.562 137.507 351.184 138.179C353.075 138.964 355.19 139.125 357.102 138.324C361.697 136.401 365.394 128.032 366.958 123.575C367.478 122.089 367.81 120.563 367.043 119.093C366.211 117.5 364.536 116.699 362.891 116.185C359.17 115.022 356.101 115.727 352.752 117.422C361.55 101.13 376.379 88.7422 391.851 78.9448C395.168 76.7162 399.81 75.312 402.675 72.6121C403.247 72.0733 403.374 72.0168 403.366 71.213C402.924 71.0141 402.875 70.9664 402.337 70.8665C399.566 70.3527 395.677 72.8867 393.391 74.1691C379.572 81.9192 362.8 95.6166 354.017 108.887C351.713 112.368 349.719 116.142 348.03 119.956C345.947 124.653 345.101 130.894 340.996 134.297C338.065 136.729 333.792 137.926 330.013 137.493C326.53 137.093 321.65 135.528 319.494 132.656C318.66 131.545 318.567 130.55 318.779 129.215C320.252 129.238 325.229 134.123 329.777 134.44C331.914 134.588 333.582 134.002 335.195 132.592C338.252 129.915 341.437 124.058 341.62 119.964C341.716 117.84 340.681 116.218 339.202 114.768C337.255 112.859 334.202 111.026 331.377 111.121C329.085 111.198 327.289 113.731 325.847 115.275C329.833 108.763 334.166 102.719 339.18 96.9386C350.922 83.4042 366.06 70.4056 383.392 64.9471C392.64 62.0352 402.22 60.9642 411.845 60.2742Z" fill="#00E600"/>
<path d="M192.168 207.272C193.935 211.462 194.184 216.122 196.327 220.191C193.348 223.922 190.802 227.725 188.591 231.962C176.344 255.423 172.883 290.563 173.608 316.717C173.77 322.522 173.716 329.317 175.564 334.842C176.041 336.264 176.545 337.375 177.946 338.048C183.533 338.322 190.607 332.645 195.484 330.155C198.581 328.574 201.773 327.193 204.969 325.828C203.31 327.887 201.425 330.05 201.216 332.777C201.751 333.751 202.065 334.064 203.284 334.124C206.282 334.273 210.217 332.81 213.187 332.233C218.462 331.207 236.231 328.51 240.107 330.856C240.118 331.535 240.251 331.409 239.84 331.857C237.275 334.649 231.733 336.103 228.15 336.954C219.105 339.1 209.464 339.837 200.237 340.997C184.683 342.972 169.116 344.837 153.537 346.594L114.46 351.431C109.916 351.999 103.309 353.802 99.0081 353.195L99 352.516C100.079 350.679 102.288 349.199 104.04 348.011C110.401 343.703 116.89 340.755 124.692 340.6C127.45 340.545 132.991 341.789 135.167 341.086L135.422 340.454C132.629 337.187 120.557 330.256 116.103 327.452L117.726 327.258C124.011 326.469 130.716 327.351 136.258 330.582C137.857 331.514 139.227 332.825 140.752 333.871C142.45 335.036 143.417 335.173 145.422 334.791C146.774 334.535 147.636 334.435 148.987 334.783C150.011 335.046 151.451 335.613 152.51 335.413C153.793 335.171 154.637 334.464 155.204 333.305C158.107 327.39 160.381 315.1 161.974 308.333C165.594 292.686 169.113 277.016 172.532 261.324C174.923 250.796 177.151 240.119 180.751 229.924C183.633 221.762 187.717 214.637 192.168 207.272Z" fill="#E5F3A1"/>
<path d="M413.038 129.955C414.052 130.904 414.708 132.583 415.368 133.813C418.472 139.6 421.312 145.68 421.707 152.342C421.764 153.188 421.784 154.035 421.767 154.882C421.749 155.73 421.695 156.575 421.605 157.418C421.514 158.261 421.387 159.098 421.223 159.93C421.059 160.761 420.859 161.584 420.624 162.398C417.814 171.999 404.469 196.233 397.7 203.779C395.148 206.625 391.596 209.682 387.59 209.727C382.114 209.788 374.672 204.13 370.828 200.508C364.502 194.546 361.935 187.887 361.636 179.281C362.064 168.464 366.528 158.847 364.877 147.92C369.207 144.695 372.792 140.81 375.378 136.053C375.458 143.084 376.993 150.031 377.242 157.054C377.39 161.217 376.261 166.233 377.699 170.168C378.481 172.309 379.961 173.83 382.035 174.73C386.614 176.715 393.79 176.459 398.244 174.466C411.702 168.445 408.392 155.333 409.483 143.641C409.935 138.804 411.236 134.441 413.038 129.955Z" fill="#931F02"/>
<path d="M340.451 138.545C341.401 139.114 341.265 142.204 341.783 143.532C341.931 143.922 342.098 144.303 342.282 144.676C342.467 145.049 342.669 145.412 342.888 145.765C343.107 146.118 343.342 146.46 343.593 146.789C343.845 147.119 344.111 147.435 344.392 147.738C344.673 148.041 344.967 148.329 345.276 148.603C345.584 148.877 345.905 149.135 346.237 149.376C346.57 149.619 346.913 149.843 347.267 150.051C347.621 150.259 347.984 150.449 348.356 150.62C352.836 152.647 357.596 151.651 361.96 149.923C364.82 161.234 355.714 172.897 359.808 188.228C362.805 199.449 371.961 205.801 381.273 211.31L376.101 212.906C368.28 214.939 360.508 217.152 352.785 219.545C353.746 214.587 354.674 209.675 354.916 204.61C355.956 182.838 349.124 158.513 338.318 139.898C338.834 139.108 339.622 138.934 340.451 138.545Z" fill="#E5F3A1"/>
<path d="M195.977 191.318C199.124 191.537 201.241 192.64 203.331 195.021C209.923 202.53 212.351 216.555 211.844 226.229C210.951 227.655 209.869 228.911 208.401 229.776C207.088 230.55 205.574 230.807 204.092 230.398C201.125 229.577 199.432 226.929 198.06 224.401L198.363 223.717L198.935 223.572C199.523 224.668 200.07 225.498 200.932 226.397C201.883 226.697 201.885 226.801 202.772 226.385C202.881 226.056 202.934 225.957 202.945 225.566C203.032 222.619 194.798 197.057 193.216 195.335L192.838 195.553C191.89 198.067 191.88 201.064 191.367 203.724C191.058 200.945 190.981 198.296 191.097 195.504C192.496 193.321 193.576 192.356 195.977 191.318Z" fill="#931F02"/>
<path d="M323.174 99.2729C325.807 99.8583 328.396 100.853 330.955 101.72C327.5 106.657 321.448 114.551 319.499 120.065C319.077 121.26 318.987 122.678 318.85 123.935C316.431 125.304 313.308 126.89 310.481 126.028C308.466 125.414 307.473 123.677 306.581 121.878C305.886 118.287 307.411 115.772 309.129 112.795C309.327 113.021 309.53 113.242 309.724 113.472C309.897 113.676 310.054 113.894 310.228 114.096C311.623 115.712 313.705 115.922 315.702 116.016C317.298 116.091 318.362 115.934 319.583 114.82C320.074 113.799 320.168 113.3 320.07 112.168C318.309 110.088 314.923 113.08 312.404 111.883L312.171 111.164C314.51 106.948 319.749 102.718 323.174 99.2729Z" fill="#00E600"/>
<path d="M387.554 152.108C388.916 152.014 390.216 151.965 391.523 152.42C393.18 152.998 394.417 154.116 395.175 155.663C396.674 158.724 395.892 163.046 394.717 166.084C393.396 169.504 391.659 171.361 388.306 172.891C387.173 172.942 385.897 172.897 384.797 172.622C383.06 172.189 381.648 171.142 380.827 169.574C379.452 166.948 380.148 163.521 380.962 160.817C382.115 156.986 383.901 154.027 387.554 152.108Z" fill="#00E600"/>
<path d="M329.972 115.228C331.764 115.268 333.722 115.914 335.137 117.073C336.351 118.07 337.005 119.531 337.082 121.115C337.236 124.254 335.2 127.843 333.231 130.105C331.751 131.805 330.797 132.273 328.593 132.409C325.101 131.41 322.49 129.869 319.909 127.273C322.678 123.043 326.296 118.632 329.972 115.228Z" fill="#00E600"/>
<path d="M356.182 119.032C357.732 118.907 359.651 118.707 361.08 119.436C361.968 119.889 362.52 120.602 362.758 121.565C363.207 123.386 362.133 125.526 361.308 127.089C359.617 130.292 357.349 134.951 353.675 136.091C353.501 136.069 353.327 136.05 353.153 136.025C351.132 135.735 348.616 134.907 347.453 133.133C346.763 132.079 346.797 130.791 347.181 129.638C348.353 126.118 352.926 120.807 356.182 119.032Z" fill="#00E600"/>
<path d="M359.785 73.5005L360.409 73.6342C359.527 75.1898 352.319 79.3672 350.193 81.1968C346.955 83.9676 343.841 86.8618 340.85 89.8795C337.859 92.8978 335.002 96.029 332.278 99.2732L328.19 97.6445L324.818 96.7567C335.397 87.0861 346.68 79.6119 359.785 73.5005Z" fill="#00E600"/>
<path d="M291.423 343C296.077 343.81 296.518 352.2 301.059 354.545C309.271 358.788 313.403 347.563 319.861 346.273C321.548 345.936 322.81 346.386 324.204 347.284C328.199 349.858 330.038 354.525 330.961 359.003C332.225 365.134 331.656 369.856 328.249 375.067C324.571 373.581 320.213 371.41 316.216 373.011C314.079 373.868 312.921 375.584 312.197 377.7C311.129 380.826 311.194 384.612 310.939 387.901C310.274 396.485 309.344 405.513 305.798 413.452L305.494 414.125C304.833 415.217 304.152 416.409 303.298 417.363C302.359 418.41 301.288 418.65 299.93 418.724C288.47 414.465 294.823 376.58 287.666 366.628C282.054 363.384 278.904 375.438 272.967 375.27C271.354 375.224 269.447 373.777 268.652 372.409C267.714 370.796 267.897 369.034 268.52 367.357C271.406 359.588 283.965 346.441 291.423 343Z" fill="#EEF7BE"/>
<path d="M121.128 344.76C126.029 342.609 131.654 341.194 136.783 339.643C164.832 331.165 193.929 326.639 223.16 330.435C229.274 331.229 235.753 332.16 241.585 334.187C242.422 334.914 243.382 335.562 243.78 336.63C242.962 337.456 242.161 337.246 241.042 337.304C244.876 338.473 248.302 339.824 251.772 341.833L251.241 341.978C244.865 343.781 240.912 348.417 237.814 354.015C234.812 359.44 226.67 380.354 221.331 382.057C220.703 382.257 220.385 382.022 219.79 381.832C215.172 377.444 216.187 358.926 208.579 359.457C206.168 359.626 203.746 362.214 202.466 364.057C196.982 371.953 190.989 393.615 188.402 403.449C186.856 409.325 185.591 415.553 183.013 421.076C182.12 422.989 181.13 424.768 179.079 425.55C178.051 425.438 177.532 425.374 176.807 424.58C169.125 416.162 179.702 367.339 162.731 365.674C153.165 364.735 139.637 383.586 134.138 377.043C131.203 373.55 132.942 363.661 133.678 359.604C134.737 353.761 136.701 348.348 139.279 343.013L142.55 341.789C142.224 341.622 141.931 341.364 141.574 341.289C140.29 341.02 124.891 345.62 121.912 346.166C119.478 347.763 107.119 350.943 106.609 352.821L106.693 353.144C105.231 353.956 76.6816 364.436 76.6357 364.434L76.4607 364.056L75.658 364.333C75.0258 363.704 75.1771 363.752 75.1173 362.923L74.8097 362.478C75.5496 362.025 76.0791 361.559 76.6821 360.937C90.7733 354.784 106.299 348.804 121.128 344.76Z" fill="#EEF7BE"/>
</g>
<defs>
<clipPath id="clip0_196_205">
<rect width="512" height="512" fill="white"/>
</clipPath>
</defs>
</svg>
